<?xml version="1.0" standalone="no"?>
<!DOCTYPE svg PUBLIC "-//W3C//DTD SVG 20010904//EN"
 "http://www.w3.org/TR/2001/REC-SVG-20010904/DTD/svg10.dtd">
<svg version="1.0" xmlns="http://www.w3.org/2000/svg"
 width="480.000000pt" height="480.000000pt" viewBox="0 0 480.000000 480.000000"
 preserveAspectRatio="xMidYMid meet">
<metadata>
Created by potrace 1.11, written by Peter Selinger 2001-2013
</metadata>
<g transform="translate(0.000000,480.000000) scale(0.100000,-0.100000)"
fill="#000000" stroke="none">
<path d="M2217 4714 c-2 -2 -32 -6 -68 -9 -35 -3 -71 -7 -79 -10 -8 -2 -35 -7
-60 -11 -25 -3 -49 -7 -55 -8 -19 -4 -130 -30 -135 -31 -3 -1 -25 -7 -50 -14
-25 -7 -49 -14 -55 -16 -5 -1 -23 -8 -40 -14 -16 -7 -41 -15 -55 -18 -13 -2
-29 -8 -36 -14 -6 -5 -14 -6 -17 -2 -4 3 -7 2 -7 -4 0 -5 -6 -10 -13 -10 -13
0 -138 -53 -147 -63 -3 -3 -12 -6 -20 -8 -8 -2 -17 -8 -18 -13 -2 -5 -8 -7
-13 -3 -5 3 -9 0 -9 -6 0 -6 -4 -9 -9 -6 -5 3 -14 -1 -21 -9 -7 -8 -16 -12
-21 -9 -5 3 -9 0 -9 -6 0 -6 -4 -8 -10 -5 -5 3 -10 1 -10 -4 0 -6 -6 -11 -13
-11 -7 0 -23 -9 -35 -20 -12 -11 -24 -19 -26 -18 -3 2 -14 -5 -26 -14 -11 -10
-20 -14 -20 -10 0 4 -7 -2 -15 -12 -8 -11 -15 -16 -15 -12 0 8 -83 -54 -88
-66 -2 -5 -8 -6 -12 -3 -5 3 -17 -6 -26 -20 -9 -14 -22 -25 -30 -25 -7 0 -18
-8 -23 -17 -6 -10 -11 -14 -11 -10 0 4 -23 -15 -50 -42 -28 -28 -50 -48 -50
-46 0 10 -107 -101 -113 -117 -3 -10 -14 -18 -23 -18 -10 0 -15 -2 -12 -5 3
-3 -9 -21 -26 -40 -47 -50 -102 -118 -97 -119 3 -1 -7 -14 -22 -30 -15 -16
-27 -35 -27 -41 0 -7 -7 -16 -16 -19 -8 -3 -13 -10 -10 -15 3 -5 -1 -12 -10
-15 -9 -4 -14 -9 -11 -12 3 -4 -3 -15 -14 -27 -10 -11 -19 -27 -19 -34 0 -7
-4 -13 -8 -13 -8 0 -42 -64 -41 -76 0 -4 -4 -10 -9 -13 -13 -8 -74 -131 -66
-131 4 0 -1 -9 -11 -20 -10 -11 -15 -20 -10 -20 4 0 3 -6 -3 -12 -9 -11 -59
-133 -66 -163 -2 -5 -6 -19 -10 -30 -5 -11 -12 -31 -17 -45 -11 -33 -57 -217
-63 -255 -2 -16 -8 -50 -12 -75 -34 -216 -33 -489 2 -707 3 -21 7 -47 9 -58 1
-11 5 -29 8 -40 3 -11 8 -31 11 -45 6 -35 35 -150 45 -180 15 -42 22 -65 23
-70 0 -8 29 -82 46 -120 8 -19 15 -37 15 -40 0 -3 13 -31 29 -62 15 -31 28
-62 28 -67 0 -6 5 -11 10 -11 6 0 10 -9 10 -20 0 -11 3 -20 8 -20 4 0 18 -23
31 -50 14 -28 29 -50 34 -50 4 0 5 -5 2 -10 -3 -6 -1 -10 4 -10 6 0 11 -7 11
-15 0 -8 5 -15 11 -15 5 0 7 -4 4 -10 -3 -5 -2 -10 4 -10 5 0 12 -9 16 -19 3
-10 18 -31 33 -47 15 -15 20 -24 12 -20 -8 4 -6 -1 5 -11 12 -10 24 -26 28
-35 3 -10 11 -18 17 -18 5 0 10 -6 10 -13 0 -7 9 -19 20 -27 11 -8 20 -20 20
-28 0 -7 7 -15 15 -18 8 -4 15 -13 15 -22 0 -8 3 -13 6 -10 6 6 44 -27 44 -38
0 -16 293 -283 312 -284 4 0 18 -10 31 -22 24 -24 51 -43 77 -55 8 -4 22 -14
32 -22 10 -9 21 -14 25 -13 3 2 9 0 12 -5 10 -13 91 -64 91 -57 0 4 8 0 18 -9
18 -16 182 -98 182 -91 0 2 10 -2 23 -11 13 -8 27 -12 30 -8 4 3 7 2 7 -4 0
-9 11 -14 63 -28 4 -2 10 -4 15 -5 4 -1 10 -2 15 -1 4 0 7 -3 7 -8 0 -6 8 -10
18 -9 9 0 42 -9 73 -21 31 -11 72 -23 90 -26 19 -3 49 -10 67 -16 18 -6 43
-12 55 -14 12 -1 33 -5 47 -9 27 -6 83 -13 170 -22 30 -2 73 -7 95 -9 101 -12
330 -3 485 19 99 14 126 19 131 22 3 2 21 6 40 9 19 3 57 13 85 21 28 8 60 17
70 19 19 4 97 31 124 42 8 3 18 7 23 8 4 2 10 4 15 5 4 1 10 2 15 1 4 0 7 4 7
9 0 5 3 9 8 8 16 -3 62 15 62 25 0 6 3 7 6 4 4 -3 16 -1 28 5 11 7 24 11 29
10 4 -1 7 3 7 10 0 6 3 8 7 5 3 -4 15 1 26 10 10 10 20 16 21 14 0 -2 21 7 46
20 25 12 48 22 53 21 4 -1 7 3 7 8 0 6 4 10 10 10 13 0 152 90 168 109 11 13
12 13 6 1 -4 -9 1 -7 14 5 57 53 65 59 57 45 -4 -8 1 -6 12 5 11 11 39 36 63
55 25 19 66 56 92 81 26 26 48 46 50 45 2 -1 14 9 28 23 14 13 19 21 11 16 -8
-4 16 21 52 57 36 37 63 69 60 72 -4 3 -2 6 3 6 6 0 28 24 49 52 22 29 47 59
55 66 13 12 13 13 0 6 -8 -4 -5 2 6 14 12 11 32 38 45 59 13 21 27 43 31 48
27 33 55 84 50 89 -3 3 0 6 7 6 7 0 9 5 6 10 -3 6 -1 10 4 10 6 0 11 5 11 11
0 6 9 23 19 37 10 15 19 30 20 35 0 4 12 30 26 57 14 27 25 52 25 55 0 3 6 18
13 33 18 35 42 105 39 115 -1 4 3 7 10 7 6 0 9 3 5 6 -3 4 0 19 9 35 8 16 12
29 8 29 -4 0 -1 7 6 15 7 9 10 18 7 22 -4 3 -3 11 2 17 6 7 12 23 15 36 3 14
7 35 10 47 4 13 8 32 11 44 2 11 7 30 11 42 4 12 8 33 10 47 2 24 11 80 20
130 18 100 23 384 10 525 -7 77 -9 93 -20 160 -3 17 -8 48 -11 70 -4 22 -9 47
-12 55 -3 8 -8 24 -10 35 -3 11 -6 25 -7 30 -2 6 -6 24 -10 40 -4 17 -10 37
-13 45 -8 19 -11 30 -17 57 -2 12 -14 43 -25 68 -11 25 -18 45 -15 45 3 0 -1
10 -8 23 -7 12 -13 24 -14 27 -7 31 -38 94 -49 102 -5 4 -7 8 -2 8 10 0 -32
83 -47 92 -6 4 -8 8 -4 8 9 0 -61 122 -76 132 -6 4 -8 8 -3 8 7 0 -31 63 -60
100 -7 8 -33 44 -60 80 -26 36 -58 74 -70 85 -13 11 -23 25 -23 29 0 5 -33 42
-74 82 -40 40 -71 76 -68 79 3 3 0 5 -6 5 -6 0 -22 10 -35 23 -60 57 -117 106
-117 100 0 -3 -9 4 -20 17 -11 13 -20 20 -20 17 0 -4 -8 1 -18 11 -10 9 -29
24 -42 32 -12 8 -28 20 -34 25 -24 21 -123 83 -144 89 -12 4 -22 12 -22 17 0
6 -4 7 -10 4 -5 -3 -10 -1 -10 5 0 6 -4 9 -9 6 -5 -4 -11 -2 -13 3 -3 8 -162
92 -173 91 -3 0 -19 7 -35 15 -17 9 -30 13 -30 10 0 -3 -11 2 -25 11 -14 9
-25 12 -25 8 0 -5 -4 -4 -8 3 -4 6 -19 14 -32 16 -14 3 -41 11 -60 19 -28 12
-127 40 -150 43 -3 0 -11 4 -18 9 -7 4 -16 6 -19 3 -3 -3 -15 -2 -27 3 -13 4
-40 11 -62 14 -21 4 -46 8 -54 11 -8 2 -37 7 -65 10 -27 4 -66 9 -85 12 -40 5
-418 12 -423 7z m147 -152 c20 -17 33 -32 29 -32 -4 0 -1 -6 8 -13 17 -13 27
-44 35 -110 3 -23 10 -55 16 -70 6 -15 9 -29 7 -32 -2 -2 -36 -6 -74 -9 -94
-8 -196 -21 -245 -32 -67 -14 -128 -11 -185 8 -64 21 -73 30 -110 101 -14 26
-30 47 -36 47 -5 0 -8 4 -5 8 5 8 -29 43 -36 37 -7 -7 -26 23 -20 32 8 11 192
59 267 68 28 4 52 9 55 10 3 2 37 6 75 10 39 4 71 8 72 9 1 1 26 2 56 1 46 0
59 -5 91 -33z m281 24 c28 -3 61 -8 75 -10 14 -3 41 -7 60 -10 33 -5 57 -10
105 -21 11 -2 31 -6 44 -9 13 -3 40 -11 60 -18 20 -7 38 -13 41 -13 47 -12 58
-20 75 -58 19 -43 31 -177 15 -177 -4 0 -8 -6 -7 -12 0 -7 -1 -30 -1 -52 -2
-38 -2 -38 -34 -31 -53 11 -63 13 -63 16 0 1 -9 3 -20 5 -24 3 -47 8 -100 22
-40 11 -70 17 -135 28 -19 3 -44 11 -55 17 -11 6 -22 10 -25 10 -3 0 -21 10
-41 23 -53 33 -79 75 -85 136 -3 29 -11 59 -16 66 -6 6 -7 12 -3 12 4 0 -2 16
-14 36 -12 19 -21 39 -21 43 0 8 47 7 145 -3z m-1035 -156 c3 -1 8 -2 13 -1 4
0 7 -3 7 -9 0 -5 6 -10 14 -10 16 0 102 -87 99 -101 -2 -5 2 -9 8 -9 5 0 7 -4
4 -10 -3 -5 -1 -10 5 -10 6 0 8 -4 5 -10 -3 -5 -1 -10 4 -10 6 0 11 -6 11 -14
0 -8 7 -17 16 -20 13 -5 14 -9 4 -21 -7 -8 -16 -13 -20 -10 -5 3 -16 -2 -24
-11 -9 -8 -16 -13 -16 -10 0 7 -162 -72 -170 -83 -3 -3 -34 -21 -70 -39 -84
-42 -161 -56 -230 -40 -8 1 -27 15 -42 30 -16 15 -28 25 -28 22 0 -3 -12 8
-26 23 -14 15 -23 21 -19 13 4 -9 0 -8 -8 3 -9 10 -17 18 -19 17 -6 -3 -58 19
-58 25 0 8 40 46 40 38 0 -5 6 -1 13 7 7 8 24 21 40 29 15 8 27 18 27 23 0 4
4 8 10 8 5 0 36 17 67 37 32 21 60 38 63 38 3 1 34 16 70 35 36 19 68 33 73
32 4 -1 7 3 7 9 0 5 4 8 9 5 5 -3 14 1 21 9 6 7 18 11 26 8 8 -3 14 -1 14 4 0
8 43 10 60 3z m1660 -12 c0 -4 3 -7 8 -6 4 0 25 -7 47 -17 22 -10 43 -18 47
-17 3 1 12 -5 18 -13 7 -8 16 -15 21 -15 5 0 43 -20 83 -45 41 -25 79 -45 85
-45 6 0 11 -4 11 -8 0 -5 12 -15 28 -23 15 -8 32 -21 39 -29 7 -8 13 -11 13
-6 0 5 9 -1 20 -14 11 -13 20 -19 20 -14 0 5 11 -4 24 -19 21 -25 24 -37 23
-100 -3 -82 -6 -97 -27 -115 -13 -12 -13 -13 0 -7 12 5 12 4 -1 -7 -9 -7 -26
-32 -38 -55 -22 -45 -32 -48 -62 -23 -39 33 -49 40 -52 38 -1 -2 -12 6 -24 17
-12 11 -39 29 -60 40 -21 11 -47 28 -57 37 -10 10 -22 15 -26 13 -4 -2 -16 5
-28 15 -12 11 -24 20 -27 20 -3 0 -14 8 -24 18 -11 9 -26 22 -33 29 -47 43
-71 105 -62 158 4 22 8 76 8 121 0 58 4 81 13 81 7 0 13 -4 13 -9z m-634 -255
c25 -16 71 -30 123 -38 20 -3 47 -8 59 -10 56 -12 65 -14 80 -19 9 -3 31 -8
47 -11 35 -7 58 -13 65 -16 3 -1 10 -3 15 -4 6 -1 17 -5 25 -8 8 -3 37 -13 63
-21 57 -19 91 -40 135 -83 18 -18 39 -33 46 -33 8 0 17 -7 20 -16 3 -8 10 -12
16 -9 5 3 10 1 10 -5 0 -6 5 -8 10 -5 6 3 10 1 10 -5 0 -6 5 -8 10 -5 6 3 10
1 10 -5 0 -6 8 -13 18 -17 9 -4 37 -20 62 -37 25 -17 49 -31 53 -31 4 0 11 -5
15 -10 4 -6 32 -29 62 -50 70 -51 107 -91 126 -137 9 -21 21 -38 27 -38 6 0 8
-3 4 -6 -6 -6 19 -39 66 -86 15 -15 25 -28 21 -28 -4 0 5 -12 20 -26 14 -15
26 -30 26 -35 0 -4 11 -19 24 -32 14 -14 22 -28 19 -31 -4 -3 -1 -6 6 -6 7 0
9 -4 6 -10 -3 -5 -2 -10 2 -10 5 0 22 -22 38 -50 17 -27 34 -50 38 -50 5 0 5
-4 2 -10 -3 -5 -2 -10 4 -10 6 0 8 -7 5 -15 -4 -8 -2 -15 3 -15 5 0 10 -6 11
-12 0 -7 3 -31 5 -53 4 -38 7 -49 24 -92 3 -10 7 -24 9 -31 1 -8 6 -21 10 -30
9 -21 9 -21 19 -57 4 -16 10 -34 14 -40 3 -5 7 -19 8 -30 2 -11 6 -27 10 -35
3 -8 7 -19 8 -25 1 -5 3 -12 4 -15 2 -3 4 -14 6 -25 2 -11 7 -33 11 -50 10
-38 10 -158 1 -209 -4 -22 -9 -107 -12 -190 -2 -83 -6 -162 -9 -176 -3 -14 -7
-43 -10 -65 -2 -22 -9 -52 -15 -67 -6 -16 -8 -28 -4 -28 3 0 -2 -9 -12 -20
-10 -11 -15 -20 -11 -20 4 0 -2 -10 -14 -22 -19 -20 -24 -33 -21 -50 0 -5 -4
-8 -11 -8 -6 0 -9 -3 -5 -6 3 -4 -3 -24 -14 -45 -11 -22 -17 -39 -13 -39 4 0
1 -6 -5 -13 -6 -8 -8 -17 -4 -20 3 -4 1 -7 -6 -7 -7 0 -9 -4 -6 -10 3 -5 1
-10 -5 -10 -7 0 -10 -6 -7 -12 2 -7 -5 -25 -15 -40 -11 -16 -16 -28 -12 -28 4
0 -1 -9 -11 -20 -10 -11 -16 -20 -12 -20 12 0 -81 -87 -128 -120 -27 -19 -52
-38 -53 -43 -2 -4 -8 -5 -13 -1 -5 3 -12 -2 -15 -10 -3 -9 -10 -13 -15 -10 -5
3 -9 0 -9 -7 0 -7 -3 -9 -7 -6 -3 4 -13 1 -22 -7 -9 -8 -20 -15 -26 -16 -5 -1
-28 -12 -50 -23 -22 -12 -42 -22 -45 -22 -7 -2 -37 -14 -80 -33 -46 -20 -60
-22 -60 -11 0 5 5 9 12 9 6 0 9 3 6 6 -6 5 3 16 85 103 18 19 25 30 17 26 -8
-5 -3 3 11 18 24 24 27 39 20 89 -1 10 -76 88 -84 88 -9 0 -111 73 -115 82 -2
5 -8 6 -13 2 -5 -3 -9 -1 -9 4 0 11 100 229 126 275 8 15 12 27 8 27 -4 0 1 9
10 19 10 11 18 26 20 34 1 8 8 23 16 33 8 9 14 19 13 20 -1 2 7 25 19 51 12
27 22 50 23 53 1 3 19 41 40 85 21 44 39 82 40 85 0 3 7 16 15 30 8 14 15 27
15 30 1 3 20 46 44 95 44 93 57 123 61 140 1 6 9 18 17 28 9 9 13 17 9 17 -3
0 1 11 10 25 16 24 15 25 -9 34 -14 5 -28 15 -32 21 -3 5 -10 8 -14 5 -5 -2
-16 4 -26 15 -10 11 -21 17 -25 15 -4 -3 -11 2 -14 11 -3 8 -10 12 -16 9 -5
-3 -10 -2 -10 3 0 5 -11 14 -25 20 -23 10 -26 9 -42 -21 -9 -17 -16 -35 -15
-39 1 -5 -2 -8 -6 -8 -7 0 -30 -39 -35 -60 -1 -3 -8 -13 -17 -23 -8 -10 -15
-21 -15 -25 0 -4 -5 -14 -12 -22 -7 -8 -13 -18 -13 -23 0 -4 -9 -17 -19 -29
-11 -11 -18 -24 -16 -28 3 -4 -2 -13 -10 -20 -8 -7 -15 -18 -15 -25 0 -8 -4
-15 -9 -17 -5 -1 -11 -10 -13 -18 -2 -8 -11 -23 -20 -34 -10 -10 -15 -23 -12
-28 3 -4 1 -8 -5 -8 -5 0 -13 -10 -17 -22 -4 -13 -10 -25 -13 -28 -11 -8 -53
-80 -47 -80 3 0 -1 -8 -9 -17 -8 -10 -15 -21 -15 -26 0 -4 -9 -17 -19 -29 -11
-11 -18 -24 -16 -28 3 -4 -4 -15 -15 -25 -11 -10 -17 -22 -14 -26 3 -5 0 -9
-6 -9 -6 0 -9 -4 -6 -9 4 -5 2 -11 -2 -13 -5 -1 -26 -33 -46 -70 -21 -37 -42
-70 -47 -74 -5 -3 -7 -10 -4 -15 4 -5 2 -9 -4 -9 -5 0 -13 -10 -17 -22 -4 -13
-10 -25 -15 -28 -4 -3 -9 -12 -11 -20 -2 -8 -11 -23 -20 -34 -10 -10 -15 -22
-13 -26 5 -8 -17 -20 -43 -26 -8 -1 -21 -6 -30 -10 -9 -4 -19 -8 -22 -9 -3 -1
-13 -5 -22 -8 -10 -4 -26 -10 -35 -14 -10 -3 -20 -7 -23 -8 -3 0 -36 -11 -75
-25 -38 -13 -72 -23 -75 -23 -3 1 -22 -8 -42 -18 -21 -11 -38 -17 -38 -15 0 2
-39 -9 -87 -26 -49 -16 -99 -32 -113 -34 -13 -3 -30 -10 -37 -16 -7 -6 -13 -8
-13 -4 0 3 -16 0 -35 -8 -20 -9 -36 -15 -38 -15 -1 1 -22 -4 -47 -11 -25 -7
-53 -14 -63 -16 -10 -1 -51 -12 -91 -23 -41 -11 -89 -23 -107 -26 -19 -3 -42
-8 -51 -11 -45 -13 -132 -26 -208 -29 -36 -2 -70 -4 -77 -4 -10 -1 -29 -86
-27 -118 1 -8 -31 -10 -111 -9 -111 3 -192 -5 -252 -23 -2 -1 -6 -1 -10 -2
-19 -3 -81 -39 -106 -63 -23 -21 -31 -24 -41 -13 -16 16 -39 58 -42 77 -2 8
-8 16 -13 18 -6 2 -11 10 -11 18 0 9 -4 12 -10 9 -5 -3 -10 -2 -10 4 0 9 -25
42 -66 87 -12 12 -19 25 -17 28 3 3 -2 8 -11 12 -9 3 -16 10 -16 16 0 5 -6 15
-12 23 -21 21 -43 50 -44 55 -1 3 -18 31 -38 62 -41 64 -57 100 -62 141 -2 15
-6 39 -8 55 -2 15 -8 38 -14 52 -15 36 -25 63 -28 78 -1 8 -6 21 -10 30 -10
22 -9 21 -18 65 -5 20 -12 40 -17 43 -5 3 -7 10 -4 15 4 5 3 15 -2 22 -4 6 -8
17 -9 22 -2 6 -8 35 -14 65 -16 72 -19 138 -7 175 4 17 10 84 12 150 5 158 12
256 26 330 6 33 11 66 11 73 1 6 5 12 10 12 5 0 6 5 3 10 -3 6 -1 10 5 10 6 0
8 5 5 10 -3 6 -1 10 4 10 6 0 11 7 11 15 0 8 4 15 9 15 8 0 30 45 35 71 1 8 8
24 14 37 7 12 10 22 7 22 -3 0 2 11 11 24 8 14 15 27 15 30 0 3 11 32 25 63
14 32 26 63 27 68 1 6 6 13 10 16 5 3 9 13 11 21 1 9 8 23 15 32 7 9 11 16 7
16 -3 0 2 9 12 20 9 12 15 22 12 24 -6 3 43 50 114 110 25 22 46 46 46 53 0 8
5 11 10 8 6 -3 10 -2 10 4 0 6 16 26 35 46 20 19 34 35 32 35 -2 0 32 36 75
80 43 44 82 80 87 80 5 0 11 4 13 9 5 14 89 62 116 67 15 3 32 10 39 16 7 6
13 7 13 3 0 -5 8 -1 18 8 10 10 22 14 25 10 4 -3 7 -2 7 4 0 6 12 16 28 22 33
14 64 32 86 50 9 7 16 10 16 6 0 -4 6 -3 13 3 25 21 199 91 250 101 28 5 69 8
90 7 20 -2 72 3 114 10 42 8 106 16 142 20 36 3 67 7 69 9 2 2 58 3 125 3 87
0 128 -4 143 -15z m-1591 -141 c23 -7 57 -27 77 -45 20 -18 51 -44 69 -58 l32
-25 -26 -26 c-14 -14 -28 -23 -31 -20 -3 3 -6 1 -6 -5 0 -6 -28 -39 -63 -74
-35 -35 -66 -72 -70 -81 -3 -10 -11 -18 -16 -18 -6 0 -17 -13 -26 -30 -9 -18
-40 -43 -83 -67 -78 -44 -137 -51 -186 -22 -32 19 -90 31 -138 30 -16 -1 -28
0 -28 2 0 11 32 65 50 85 11 12 18 22 15 22 -6 0 19 32 53 66 13 13 21 24 18
24 -6 0 22 32 97 111 31 34 57 66 57 72 0 6 3 8 6 4 3 -3 23 12 44 32 43 41
72 46 155 23z m2911 -73 c122 -126 134 -138 134 -144 0 -3 11 -18 25 -33 14
-15 38 -45 53 -67 15 -22 30 -41 35 -43 4 -2 7 -8 7 -13 0 -9 7 -20 36 -52 10
-12 11 -76 1 -107 -3 -8 -8 -25 -12 -37 -4 -13 -11 -23 -16 -23 -5 0 -9 -5 -9
-11 0 -6 -7 -17 -15 -25 -8 -9 -15 -12 -15 -8 0 4 -7 -1 -15 -12 -8 -10 -15
-15 -15 -11 0 5 -13 -4 -29 -20 -16 -15 -27 -31 -24 -35 2 -5 -5 -8 -17 -8
-12 0 -18 5 -15 10 3 6 2 10 -4 10 -5 0 -12 8 -15 18 -3 9 -17 29 -30 43 -14
15 -22 30 -19 33 4 3 1 6 -5 6 -7 0 -12 6 -12 13 0 7 -13 24 -30 39 -16 14
-27 28 -24 31 3 3 -3 12 -15 19 -12 7 -21 19 -21 26 0 7 -7 15 -15 18 -18 7
-60 75 -56 92 1 6 -2 12 -7 12 -5 0 -9 6 -10 13 0 6 -4 27 -7 46 -8 41 1 96
18 113 26 26 62 113 66 161 2 17 22 3 77 -54z m-3273 -514 c14 -9 29 -16 32
-15 12 3 65 -12 65 -19 0 -3 -8 -18 -17 -31 -10 -14 -17 -26 -16 -27 2 -3 -14
-43 -51 -128 -13 -29 -22 -56 -18 -59 3 -3 1 -6 -5 -6 -9 0 -28 -54 -24 -72 0
-5 -4 -8 -9 -8 -5 0 -9 -3 -8 -7 3 -14 -25 -63 -35 -63 -6 0 -8 -3 -4 -6 8 -8
-83 -84 -103 -85 -8 0 -49 -2 -90 -3 -41 -2 -88 -8 -103 -15 -16 -6 -33 -11
-38 -11 -10 0 -6 38 8 67 5 10 9 25 8 33 -1 8 5 27 12 43 7 15 11 27 8 27 -3
0 2 17 11 38 9 20 17 44 19 52 2 8 4 16 5 18 2 1 3 5 5 10 1 4 5 14 8 22 11
26 30 75 32 80 0 3 8 19 18 36 9 17 13 34 10 38 -4 3 -1 6 6 6 7 0 9 5 6 10
-3 6 -1 10 4 10 6 0 11 7 11 14 0 8 11 27 25 42 14 15 25 24 25 21 0 -3 12 -1
28 4 41 13 145 4 175 -16z m3686 -48 c6 -8 8 -17 4 -20 -3 -4 -2 -7 4 -7 5 0
10 -6 10 -12 0 -7 13 -40 29 -73 15 -33 29 -64 30 -70 4 -14 33 -97 41 -115 3
-8 7 -20 9 -27 1 -6 8 -29 15 -50 7 -21 12 -42 11 -47 -2 -4 2 -14 8 -20 5 -7
7 -16 4 -19 -3 -3 -2 -12 2 -19 12 -20 13 -51 1 -73 -6 -11 -11 -22 -12 -25 0
-10 -64 -69 -87 -82 -13 -6 -32 -13 -42 -15 -10 -2 -39 -12 -64 -23 -53 -24
-54 -23 -72 58 -7 31 -17 63 -22 70 -6 6 -8 12 -5 12 4 0 -1 19 -9 43 -9 23
-17 49 -19 57 -2 8 -13 40 -24 71 -15 42 -19 72 -16 125 7 96 5 92 34 119 116
110 143 140 134 149 -4 3 1 6 9 6 9 0 21 -6 27 -13z m-3833 -595 c-7 -11 -18
-185 -20 -312 -2 -74 -8 -120 -21 -155 -18 -49 -80 -121 -107 -123 -27 -2 -46
-8 -60 -20 -8 -6 -17 -10 -20 -7 -3 3 -11 -1 -18 -10 -7 -8 -17 -15 -22 -15
-5 0 -16 -7 -25 -16 -33 -33 -38 -2 -37 249 0 253 4 317 17 317 5 0 6 4 3 9
-3 5 2 15 11 22 14 12 16 12 8 -1 -5 -8 3 -4 18 10 14 14 29 24 32 22 3 -2 16
3 29 11 14 10 43 14 82 13 32 -1 73 1 89 5 43 10 47 10 41 1z m4045 -124 c13
-50 17 -367 6 -485 -6 -72 -38 -140 -59 -127 -4 3 -8 1 -8 -4 0 -18 -65 -36
-136 -38 -40 -1 -84 -4 -99 -8 l-27 -7 7 63 c8 68 12 144 15 278 1 47 8 99 15
117 7 17 11 34 7 37 -3 3 1 6 8 6 7 0 11 3 7 6 -3 3 -1 11 4 18 32 38 59 66
59 61 0 -3 16 1 35 9 19 8 35 12 35 9 0 -3 9 2 21 13 12 10 24 18 28 16 3 -1
13 4 23 12 9 8 19 12 22 9 3 -4 6 -1 6 5 0 10 28 18 31 10z m-928 -85 c-3 -10
-10 -23 -14 -29 -5 -6 -6 -14 -2 -17 3 -4 1 -7 -6 -7 -7 0 -9 -4 -6 -10 3 -5
2 -10 -2 -10 -9 0 -39 -69 -35 -82 1 -5 -3 -8 -9 -8 -5 0 -7 -4 -4 -10 3 -5 2
-10 -3 -10 -5 0 -13 -10 -17 -22 -4 -13 -8 -25 -9 -28 -1 -3 -21 -45 -45 -93
-46 -97 -93 -199 -96 -207 0 -3 -13 -29 -28 -57 -15 -29 -24 -53 -20 -53 5 0
3 -4 -2 -8 -12 -8 -39 -64 -37 -74 1 -5 -2 -8 -6 -8 -9 0 -37 -70 -34 -82 1
-5 -2 -8 -7 -8 -5 0 -12 -10 -16 -22 -4 -13 -8 -25 -10 -28 -30 -68 -34 -84
-29 -105 3 -14 10 -25 16 -25 5 0 6 -4 3 -10 -3 -5 -2 -10 3 -10 5 0 18 -8 30
-17 36 -31 67 -52 75 -52 5 0 17 -10 28 -22 10 -12 19 -19 19 -16 0 4 9 -1 20
-10 31 -27 29 -31 -67 -138 -15 -16 -27 -31 -26 -32 1 -1 -21 -25 -48 -52 -28
-28 -47 -51 -42 -51 15 -1 -101 -70 -117 -70 -9 0 -20 -3 -24 -7 -3 -4 -12 -8
-19 -9 -7 -1 -29 -5 -51 -8 -149 -24 -439 -24 -479 1 -5 3 -21 7 -36 9 -14 1
-60 10 -101 19 -41 9 -86 19 -100 21 -14 2 -46 9 -71 15 -26 6 -53 12 -60 13
-8 1 -27 5 -44 9 -16 4 -42 9 -57 12 -34 6 -68 13 -105 21 -16 3 -38 7 -50 9
-11 2 -31 6 -43 10 -12 4 -32 8 -43 9 -60 7 -86 18 -84 35 0 9 8 17 16 17 19
1 115 14 145 20 33 6 90 18 96 19 3 1 19 5 35 9 17 4 57 14 90 23 33 8 78 19
100 24 22 5 47 12 55 15 8 3 16 5 18 5 1 -1 18 5 37 13 19 8 35 13 35 11 0 -2
19 3 43 11 23 9 50 17 60 19 16 4 121 38 157 52 8 3 21 7 28 9 8 1 21 6 30 10
9 4 23 8 30 10 8 1 21 6 30 10 9 4 23 8 30 10 8 1 21 6 30 10 25 11 24 11 60
19 17 4 32 11 32 16 0 5 3 8 8 7 10 -3 115 33 130 45 6 5 12 7 12 3 0 -4 14 1
31 9 17 9 29 19 26 22 -3 2 2 13 11 24 9 11 17 23 17 27 0 4 10 21 22 38 12
17 23 37 25 44 2 8 11 23 20 34 10 10 15 23 12 28 -3 4 -1 8 5 8 5 0 13 10 17
23 4 12 10 24 14 27 11 8 75 125 72 133 -1 4 1 7 6 7 4 0 19 21 32 48 14 26
28 49 31 52 9 7 40 69 38 76 0 4 6 11 15 16 9 5 16 14 16 19 0 6 9 23 20 39
11 15 17 30 13 34 -3 3 0 6 7 6 7 0 11 3 7 6 -3 3 3 15 13 27 11 11 17 24 14
29 -3 4 -1 8 4 8 5 0 17 18 27 40 10 22 22 40 27 40 4 0 8 7 8 15 0 9 9 25 20
37 10 12 17 25 14 30 -3 4 2 8 10 8 10 0 13 -6 9 -17z m-3120 -524 c9 -35 18
-72 19 -81 1 -10 6 -18 10 -18 4 0 7 -3 6 -7 -3 -17 15 -83 23 -83 5 0 8 -3 7
-7 -1 -5 6 -34 16 -66 23 -71 26 -139 10 -189 -7 -21 -11 -38 -8 -38 3 0 -6
-10 -21 -22 -48 -41 -128 -118 -121 -118 3 0 -2 -9 -11 -19 -25 -30 -30 -23
-120 199 -19 47 -36 92 -38 101 -2 9 -12 47 -23 85 -20 68 -33 117 -38 142 -1
6 2 12 7 12 5 0 9 7 9 15 0 8 10 24 23 36 12 12 15 19 7 14 -8 -4 -1 4 15 19
17 14 55 35 85 46 30 11 66 26 80 34 14 8 29 13 35 12 5 -2 18 -32 28 -67z
m4003 -171 c-6 -42 -9 -50 -31 -123 -10 -33 -20 -64 -21 -70 -1 -5 -7 -23 -14
-40 -6 -16 -11 -31 -11 -33 1 -1 -5 -15 -13 -31 -9 -16 -12 -31 -9 -35 4 -3 1
-6 -5 -6 -7 0 -12 -4 -12 -10 0 -5 -12 -35 -27 -67 -14 -32 -25 -61 -25 -65 1
-5 -3 -8 -10 -8 -6 0 -8 -3 -5 -7 6 -6 -29 -36 -45 -39 -5 -1 -9 -2 -10 -4
-13 -10 -103 -15 -138 -7 -8 2 -25 9 -37 15 -13 7 -23 9 -23 5 0 -4 -4 -2 -8
4 -4 7 -25 14 -45 15 -42 3 -40 2 -27 26 24 41 78 172 72 172 -4 0 -1 4 6 9 7
4 14 18 15 29 1 12 5 22 9 22 4 0 7 3 6 8 -1 4 4 21 11 37 7 17 15 39 17 49 2
11 9 23 16 28 7 4 10 8 6 8 -9 0 12 26 59 75 17 19 34 31 37 28 3 -4 6 -2 6 4
0 11 14 13 95 13 33 0 83 7 110 14 28 8 51 15 53 15 2 1 1 -14 -2 -31z m-3796
-412 c0 -7 8 -21 18 -32 9 -10 30 -38 46 -62 16 -23 39 -53 52 -67 13 -14 20
-25 17 -25 -3 0 3 -8 14 -17 11 -10 22 -26 26 -35 3 -10 10 -18 15 -18 12 0
62 -93 69 -128 15 -77 12 -92 -36 -167 -14 -22 -26 -44 -27 -50 -2 -5 -7 -25
-13 -42 -5 -18 -7 -33 -3 -33 4 0 1 -4 -7 -9 -10 -6 -21 -1 -37 16 -13 14 -24
29 -24 34 0 4 -9 11 -20 14 -11 4 -18 10 -15 15 3 5 -4 11 -15 15 -11 3 -19 9
-17 13 1 4 -7 17 -18 28 -43 46 -73 81 -120 144 -27 36 -54 68 -60 72 -6 5 -6
8 0 8 6 0 3 6 -5 13 -25 20 -48 71 -45 98 4 39 39 110 69 142 14 15 26 25 26
22 0 -3 19 12 41 34 39 37 69 44 69 17z m3335 -226 c6 -5 15 -7 18 -3 4 3 7 2
7 -4 0 -12 90 -28 130 -24 20 2 22 1 12 -11 -6 -8 -9 -18 -5 -21 3 -4 1 -7 -5
-7 -7 0 -12 -5 -12 -11 0 -6 -6 -17 -12 -24 -28 -31 -38 -44 -38 -51 0 -4 -9
-15 -21 -25 -11 -9 -20 -20 -19 -23 1 -7 -13 -24 -53 -66 -16 -17 -26 -30 -24
-30 3 0 -37 -42 -89 -94 l-93 -93 -53 2 c-67 4 -120 27 -155 65 -14 17 -30 30
-35 30 -10 0 -48 32 -48 42 0 4 35 42 78 84 42 42 70 73 62 69 -8 -5 10 15 40
45 30 29 48 49 40 45 -8 -5 3 9 25 31 22 22 43 38 48 36 4 -2 7 1 7 6 0 5 8
12 18 16 9 3 33 12 52 20 38 15 105 13 125 -4z m-2427 -114 c11 -4 37 -9 58
-11 22 -2 48 -6 59 -9 80 -18 184 -39 202 -41 11 -2 29 -6 40 -9 10 -3 32 -8
48 -11 45 -7 75 -14 93 -19 9 -3 34 -7 56 -11 21 -3 41 -7 45 -9 3 -2 22 -7
41 -10 19 -3 46 -8 60 -11 14 -3 39 -8 55 -11 17 -3 59 -12 95 -20 131 -31
368 -35 505 -10 11 2 38 7 60 11 22 4 46 11 53 17 6 6 12 8 12 5 0 -4 18 0 39
8 22 7 41 12 44 9 2 -2 20 3 40 11 21 8 37 13 37 10 0 -3 9 -1 21 5 11 7 31
14 44 16 12 2 40 11 61 21 22 9 48 18 59 20 10 2 22 7 25 11 3 4 12 8 20 10 8
2 35 12 59 23 24 11 45 18 48 15 8 -8 -47 -83 -72 -96 -13 -7 -22 -17 -19 -22
3 -4 1 -8 -4 -8 -5 0 -29 -19 -53 -43 -24 -23 -47 -42 -51 -42 -4 0 -18 -9
-30 -20 -13 -10 -25 -18 -28 -17 -11 3 -80 -19 -85 -28 -4 -6 -10 -8 -15 -5
-4 3 -13 -2 -20 -10 -7 -8 -16 -12 -21 -9 -5 3 -9 1 -9 -4 0 -5 -27 -21 -60
-36 -32 -15 -62 -31 -65 -36 -4 -6 -15 -10 -26 -10 -10 0 -19 -5 -19 -11 0 -5
-4 -8 -9 -5 -5 3 -14 -1 -21 -9 -7 -8 -17 -15 -22 -15 -5 0 -24 -7 -44 -15
-19 -8 -37 -14 -39 -14 -3 -1 -20 -7 -38 -14 -18 -8 -66 -14 -107 -14 -41 0
-91 -4 -110 -8 -19 -4 -50 -9 -67 -11 -18 -2 -50 -6 -70 -9 -196 -25 -300 -24
-373 5 -58 23 -64 25 -126 34 -22 4 -56 11 -77 17 -21 6 -50 12 -65 14 -43 6
-67 12 -118 30 -27 9 -57 18 -66 20 -9 2 -25 8 -36 14 -11 6 -22 7 -26 4 -3
-3 -6 -1 -6 5 0 7 -6 12 -12 12 -7 0 -37 22 -67 50 -30 27 -58 47 -62 44 -5
-3 -9 0 -9 6 0 6 -4 8 -10 5 -5 -3 -10 -3 -10 2 0 4 -12 17 -27 27 -16 12 -23
14 -18 5 5 -8 -3 -4 -16 7 -13 12 -56 42 -95 68 -91 59 -98 67 -78 92 8 10 13
12 9 4 -6 -13 -5 -13 7 0 7 8 20 17 28 19 8 2 35 9 60 16 46 12 279 13 318 1z
m-488 -177 c0 -5 5 -9 10 -9 6 0 16 -5 23 -10 47 -39 62 -50 78 -55 11 -4 19
-11 19 -16 0 -6 4 -8 9 -5 5 4 11 2 13 -3 2 -7 134 -91 143 -91 8 0 66 -60 59
-60 -5 0 -4 -4 3 -8 17 -11 52 -97 48 -119 -2 -10 -4 -18 -5 -18 -6 0 -12 -53
-12 -117 0 -43 -2 -78 -4 -78 -3 0 -23 9 -44 20 -22 11 -40 18 -40 14 0 -3 -7
2 -16 10 -8 9 -20 14 -25 11 -5 -4 -9 -1 -9 5 0 6 -4 8 -10 5 -5 -3 -10 -1
-10 5 0 6 -4 9 -9 6 -5 -3 -12 1 -15 10 -3 8 -10 12 -16 9 -5 -3 -10 -1 -10 6
0 7 -3 10 -6 6 -4 -3 -26 7 -50 23 -23 17 -47 30 -53 30 -6 0 -11 5 -11 12 0
6 -3 9 -6 5 -3 -3 -18 5 -32 18 -14 13 -29 22 -34 19 -4 -3 -11 2 -14 10 -3 9
-12 16 -19 16 -7 0 -15 7 -19 15 -3 8 -12 15 -19 15 -22 0 -41 47 -40 103 0
67 6 107 15 107 4 0 21 29 38 64 26 51 35 63 51 59 10 -3 19 -9 19 -14z m2393
-191 c18 -12 40 -33 50 -45 10 -13 23 -21 28 -18 5 4 9 2 9 -3 0 -6 18 -17 40
-26 22 -9 40 -19 40 -23 0 -13 -20 -39 -20 -28 0 6 -7 1 -15 -9 -8 -11 -15
-16 -15 -11 0 4 -8 -2 -19 -13 -10 -12 -20 -20 -22 -17 -3 2 -18 -7 -33 -20
-16 -14 -33 -25 -37 -25 -4 0 -14 -6 -21 -13 -7 -7 -74 -43 -148 -80 -129 -65
-200 -88 -200 -65 0 5 -7 8 -15 4 -8 -3 -15 -1 -15 5 0 6 -4 7 -10 4 -5 -3
-10 -1 -10 4 0 6 -5 11 -11 11 -18 0 -58 50 -83 103 -12 26 -25 44 -29 41 -4
-4 -7 0 -7 9 0 10 -4 17 -10 17 -22 0 -8 22 20 33 17 6 30 15 30 19 0 4 8 8
18 8 10 0 28 7 40 16 12 8 22 12 22 9 0 -4 13 3 29 14 16 12 34 21 40 21 6 0
11 5 11 11 0 5 5 7 10 4 6 -3 10 -1 10 5 0 6 4 9 8 6 5 -3 20 5 33 17 13 12
24 21 24 20 1 -8 45 11 45 20 0 6 3 8 6 5 3 -3 17 -2 32 2 15 5 53 9 85 9 46
1 66 -4 90 -21z m-1818 -149 c6 -4 28 -10 50 -14 22 -5 45 -9 50 -11 25 -7
155 -34 189 -39 20 -4 54 -14 74 -23 20 -8 40 -15 45 -14 4 1 7 -2 7 -8 0 -5
8 -10 17 -10 9 0 13 -3 10 -7 -4 -3 5 -15 20 -25 16 -10 24 -18 19 -18 -5 0
-3 -6 3 -14 7 -8 16 -36 21 -63 13 -75 17 -88 39 -132 l21 -41 -62 5 c-35 3
-79 7 -98 9 -111 13 -137 17 -152 22 -24 7 -82 20 -132 28 -14 2 -30 7 -35 11
-10 5 -27 10 -68 19 -20 4 -62 39 -57 48 3 4 0 8 -7 8 -7 0 -9 3 -6 6 3 4 2
15 -3 24 -17 31 -19 92 -6 149 6 31 11 66 10 79 -1 17 3 22 20 19 11 -1 26 -5
31 -8z m1108 -95 c52 -16 97 -53 97 -79 0 -8 5 -15 10 -15 6 0 10 -8 10 -19 0
-10 11 -27 25 -37 14 -10 25 -25 25 -32 0 -7 4 -11 8 -8 4 2 13 -4 20 -14 6
-11 8 -21 4 -24 -13 -8 -188 -52 -237 -60 -137 -22 -161 -25 -258 -31 l-79 -4
-44 45 c-43 44 -59 81 -67 154 -2 19 -8 44 -12 55 -16 44 -15 45 23 46 20 0
51 2 67 4 144 16 256 32 263 39 7 8 100 -5 145 -20z"/>
<path d="M1854 3811 c14 -21 22 -42 19 -45 -4 -3 -1 -6 6 -6 7 0 10 -4 6 -9
-3 -5 -1 -12 5 -16 5 -3 10 -15 10 -26 0 -10 4 -19 8 -19 5 0 9 -6 10 -12 0
-7 8 -38 16 -68 9 -30 16 -68 15 -85 0 -41 -25 -107 -44 -117 -8 -5 -13 -12
-11 -16 2 -4 -11 -18 -30 -31 -19 -13 -34 -27 -34 -32 0 -5 -6 -9 -14 -9 -8 0
-22 -10 -30 -22 -9 -12 -16 -18 -16 -13 0 6 -7 1 -15 -9 -8 -11 -15 -16 -15
-12 0 4 -7 1 -15 -8 -8 -8 -15 -16 -15 -18 0 -3 1321 -2 1343 1 5 1 5 5 2 11
-3 5 -1 18 4 28 21 40 33 192 19 257 -12 56 -48 145 -60 145 -5 0 -6 5 -3 10
3 6 1 10 -6 10 -7 0 -10 3 -6 6 3 4 -24 36 -60 73 l-65 66 -525 3 -524 3 25
-40z m1014 -122 c23 -22 42 -47 42 -55 0 -8 6 -17 13 -20 8 -3 14 -10 15 -17
0 -7 7 -34 15 -62 11 -41 15 -115 8 -170 -1 -7 -163 -10 -468 -9 -258 1 -469
2 -471 3 -1 0 7 20 19 44 32 61 31 217 -1 278 -28 51 -41 49 388 49 l399 0 41
-41z"/>
<path d="M1758 3182 c-52 -3 -54 -6 -37 -49 17 -44 21 -81 21 -173 0 -92 -5
-136 -15 -147 -4 -3 -7 -13 -7 -20 0 -16 -52 -125 -72 -149 -34 -43 -121 -124
-139 -129 -10 -4 -19 -11 -19 -16 0 -6 -4 -8 -8 -5 -5 3 -18 -3 -29 -14 -12
-10 -24 -16 -27 -13 -3 4 -6 1 -6 -5 0 -7 -3 -11 -7 -10 -5 2 -28 -10 -53 -25
l-45 -27 987 0 986 0 11 48 c6 26 14 58 17 72 21 86 11 251 -20 345 -2 6 -3
13 -2 16 0 4 -8 16 -18 28 -11 12 -15 21 -11 21 4 0 1 8 -8 18 -10 10 -14 22
-11 25 4 4 -1 9 -10 13 -9 3 -16 12 -16 19 0 14 -114 135 -127 135 -5 0 -16 9
-26 20 -15 17 -30 20 -119 21 -437 3 -1152 3 -1190 1z m1277 -145 c19 -13 32
-27 28 -30 -3 -4 1 -7 10 -7 10 0 17 -7 17 -15 0 -8 4 -15 8 -15 9 0 84 -123
89 -144 1 -6 5 -24 10 -41 6 -26 8 -221 2 -252 -2 -9 -184 -11 -746 -11 -408
0 -743 3 -743 8 0 4 7 13 15 20 8 7 12 16 9 21 -3 5 -1 9 4 9 7 0 56 76 57 90
0 3 6 15 13 26 38 69 57 165 56 282 l-1 82 569 0 569 0 34 -23z"/>
<path d="M1443 2278 c41 -40 83 -88 92 -107 21 -43 22 -146 1 -206 -17 -48
-82 -173 -88 -169 -4 2 -9 -5 -13 -16 -3 -11 -11 -20 -17 -20 -6 0 -9 -3 -6
-6 7 -6 -59 -74 -72 -74 -5 0 -17 -11 -26 -25 -9 -14 -20 -22 -25 -19 -5 3
-12 -2 -15 -10 -3 -9 -10 -13 -15 -10 -5 3 -9 0 -9 -7 0 -7 -3 -9 -7 -6 -3 4
-15 0 -25 -10 -10 -9 -18 -13 -18 -9 0 4 -13 -3 -29 -16 -15 -12 -38 -30 -51
-38 -12 -8 -28 -20 -36 -25 -11 -7 74 -10 273 -9 266 2 314 4 383 19 14 4 34
7 45 9 11 2 49 11 85 20 36 9 75 18 87 20 12 3 30 9 40 14 10 5 25 7 33 4 8
-2 12 -1 7 3 -7 8 -68 10 -439 15 -93 1 -168 5 -168 9 0 3 19 26 41 51 23 25
38 39 34 31 -6 -9 -4 -12 3 -7 7 4 12 11 12 17 0 5 8 18 18 28 39 44 68 90 64
104 -1 4 1 7 6 7 9 0 27 41 47 113 21 73 22 169 2 224 -8 23 -12 45 -9 48 3 3
353 5 779 5 782 0 779 0 774 33 0 4 4 7 10 7 5 0 7 5 4 10 -3 6 -2 10 3 10 5
0 12 8 16 18 3 9 9 23 12 30 4 9 -186 12 -937 12 l-942 0 76 -72z"/>
</g>
</svg>
