<?xml version="1.0" standalone="no"?>
<!DOCTYPE svg PUBLIC "-//W3C//DTD SVG 20010904//EN"
 "http://www.w3.org/TR/2001/REC-SVG-20010904/DTD/svg10.dtd">
<svg version="1.0" xmlns="http://www.w3.org/2000/svg"
 width="500.000000pt" height="500.000000pt" viewBox="0 0 500.000000 500.000000"
 preserveAspectRatio="xMidYMid meet">
<metadata>
Created by potrace 1.11, written by Peter Selinger 2001-2013
</metadata>
<g transform="translate(0.000000,500.000000) scale(0.100000,-0.100000)"
fill="#000000" stroke="none">
<path d="M3185 4986 c-53 -13 -90 -29 -117 -53 -46 -41 28 -65 239 -78 134 -9
159 -14 255 -56 51 -22 131 -57 178 -77 96 -42 217 -119 253 -162 14 -16 37
-49 53 -74 33 -53 63 -65 99 -42 37 24 21 68 -70 191 -125 169 -282 284 -460
337 -69 21 -101 25 -230 25 -83 0 -172 -5 -200 -11z"/>
<path d="M1110 4807 c-13 -7 -43 -50 -70 -100 -26 -49 -65 -114 -87 -145 -138
-196 -102 -387 126 -672 121 -151 490 -507 499 -481 8 25 -24 88 -73 141 -29
31 -80 92 -114 136 -34 43 -66 84 -71 91 -6 7 -10 14 -10 17 0 2 -16 28 -35
57 -44 67 -129 238 -156 315 -38 107 -48 166 -45 264 3 106 21 164 81 261 19
31 35 66 35 77 0 35 -45 57 -80 39z"/>
<path d="M3062 4775 c-33 -28 -56 -90 -42 -116 7 -12 22 -17 58 -17 26 -1 68
-3 92 -7 25 -3 61 -7 80 -10 122 -15 198 -40 295 -97 65 -38 218 -148 275
-198 14 -12 36 -31 50 -43 14 -12 55 -47 90 -78 96 -83 125 -94 164 -64 19 14
19 15 0 52 -101 195 -214 335 -327 407 -99 62 -243 135 -322 162 -70 24 -98
27 -232 30 -148 3 -153 3 -181 -21z"/>
<path d="M1307 4645 c-157 -164 -160 -169 -160 -218 1 -234 127 -525 341 -791
172 -213 195 -209 88 15 -87 182 -134 332 -161 509 -8 48 -8 231 -2 265 3 11
8 40 12 65 3 25 15 74 25 110 37 131 36 170 -4 170 -14 0 -61 -42 -139 -125z"/>
<path d="M3170 4528 c-25 -5 -69 -14 -97 -19 -50 -10 -83 -29 -83 -50 0 -31
57 -56 173 -76 57 -9 242 -65 336 -100 109 -40 274 -118 405 -191 77 -43 93
-48 117 -40 15 5 30 16 33 23 5 14 -46 64 -156 150 -34 27 -69 56 -76 62 -32
31 -244 165 -322 204 -81 40 -89 42 -185 45 -55 1 -120 -2 -145 -8z"/>
<path d="M4123 4408 c-27 -9 -30 -13 -23 -32 9 -21 39 -117 80 -256 12 -41 33
-110 47 -153 14 -43 26 -84 27 -90 3 -12 11 -36 26 -72 6 -16 9 -12 18 25 10
45 9 304 -2 350 -23 102 -31 129 -46 160 -32 64 -72 85 -127 68z"/>
<path d="M724 4325 c-30 -160 105 -417 340 -650 145 -144 301 -249 446 -300
40 -14 42 -14 29 3 -31 41 -141 140 -229 205 -215 160 -358 344 -466 600 -45
106 -86 177 -105 177 -4 0 -11 -16 -15 -35z"/>
<path d="M3164 4227 c-26 -14 -25 -12 -30 -44 -7 -42 26 -66 126 -91 106 -28
198 -72 336 -163 l106 -70 79 32 c44 17 82 36 85 41 41 66 -211 242 -409 284
-88 19 -266 26 -293 11z"/>
<path d="M3110 4010 c-15 -28 -4 -58 28 -74 15 -7 74 -21 132 -31 120 -20 239
-62 300 -106 23 -17 44 -28 46 -26 8 8 -72 103 -118 140 -59 48 -136 82 -230
101 -107 22 -145 21 -158 -4z"/>
<path d="M4045 4001 c-22 -10 -61 -41 -87 -67 -36 -38 -59 -53 -105 -66 -42
-12 -70 -29 -101 -60 -70 -69 -144 -244 -156 -368 -4 -36 -12 -91 -18 -123
-14 -73 -3 -99 51 -126 37 -20 40 -20 60 -3 14 12 22 34 26 72 8 69 48 190 86
256 56 98 149 192 287 289 114 80 118 87 88 151 -32 69 -59 78 -131 45z"/>
<path d="M724 3891 c15 -157 79 -269 199 -350 94 -63 695 -341 739 -341 20 0
68 21 68 30 0 3 -17 12 -37 19 -58 21 -266 126 -341 173 -186 117 -325 230
-506 410 l-128 129 6 -70z"/>
<path d="M3138 3849 c-25 -14 -22 -56 5 -73 12 -9 47 -20 77 -26 63 -13 190
-72 268 -124 30 -20 56 -36 58 -36 10 0 44 67 44 87 0 69 -94 137 -235 169
-43 10 -201 12 -217 3z"/>
<path d="M4125 3789 c-182 -157 -268 -258 -324 -380 -33 -69 -61 -167 -61
-210 0 -15 -8 -37 -19 -50 l-19 -23 -66 33 -66 34 -94 -71 c-132 -99 -159
-137 -170 -243 -10 -90 -36 -152 -81 -192 -44 -40 -78 -51 -185 -54 -57 -2
-109 -8 -114 -13 -12 -12 -7 -95 8 -132 14 -31 123 -59 212 -54 47 3 79 13
140 44 137 70 280 117 394 129 103 10 113 18 148 125 34 107 70 172 151 273
100 124 111 147 135 275 6 33 53 163 78 220 95 207 102 242 67 316 -23 48 -54
42 -134 -27z"/>
<path d="M3165 3696 c-32 -14 -55 -51 -55 -90 0 -37 42 -73 106 -91 91 -25
226 -80 280 -114 27 -16 49 -29 50 -28 1 1 5 32 8 68 7 65 6 68 -23 102 -62
70 -204 146 -301 160 -19 3 -49 0 -65 -7z"/>
<path d="M621 3644 c-29 -21 -24 -42 31 -131 140 -226 215 -288 423 -352 151
-45 419 -98 595 -117 30 -3 58 -8 62 -10 14 -9 35 26 30 51 -6 35 -28 48 -162
90 -287 92 -521 208 -807 399 -71 47 -133 86 -138 86 -6 0 -21 -7 -34 -16z"/>
<path d="M1724 3475 c3 -30 16 -81 28 -112 22 -60 94 -186 132 -231 66 -79 83
-95 123 -119 50 -29 61 -27 35 8 -10 13 -72 111 -138 217 -65 106 -127 205
-136 220 -10 15 -22 37 -28 50 -16 38 -23 25 -16 -33z"/>
<path d="M3133 3469 c-31 -11 -45 -42 -34 -72 12 -31 34 -40 96 -39 67 0 248
12 252 16 2 2 -33 20 -78 40 -89 41 -203 67 -236 55z"/>
<path d="M3215 3313 c-59 -12 -156 -46 -147 -52 29 -18 204 -10 322 14 8 2 24
4 35 5 15 1 11 5 -15 17 -33 14 -154 25 -195 16z"/>
<path d="M1750 3223 c0 -34 69 -187 212 -472 82 -163 159 -304 174 -318 15
-14 47 -33 70 -44 97 -41 193 -117 258 -203 36 -48 91 -145 84 -151 -2 -1 -28
-13 -59 -27 -78 -35 -285 -172 -293 -195 -8 -19 23 -52 50 -54 25 -2 64 -1 69
1 3 1 8 3 13 4 119 31 235 105 296 190 13 19 14 19 37 -3 37 -35 89 -58 146
-64 94 -10 103 -22 109 -146 6 -148 24 -236 68 -341 51 -120 103 -186 247
-315 88 -79 127 -152 132 -249 1 -28 8 -51 15 -54 12 -4 14 1 16 53 1 40 15
62 27 44 5 -8 9 -24 9 -35 0 -29 27 -39 35 -13 4 11 3 25 -2 32 -15 19 -10 51
8 55 10 2 25 -11 38 -33 25 -43 44 -37 36 12 -7 47 -15 60 -75 118 -67 65 -71
73 -76 157 -3 58 -13 89 -55 179 -28 61 -49 113 -46 115 12 13 88 -102 122
-186 21 -49 41 -90 45 -90 4 0 26 42 49 92 24 51 56 111 73 133 l30 40 -5 -52
c-6 -54 -24 -100 -82 -198 -45 -77 -46 -118 -4 -171 34 -43 120 -124 132 -124
4 0 5 15 1 34 -8 46 2 62 27 40 10 -9 19 -23 19 -30 0 -43 49 -89 50 -46 1 9
3 34 6 55 8 52 -12 96 -45 103 -14 3 -41 12 -58 19 -40 18 -42 42 -12 130 30
91 40 182 26 245 -35 156 -26 235 36 322 42 61 90 98 198 155 49 25 106 64
129 85 22 21 40 35 41 31 0 -4 2 -18 3 -31 5 -46 66 -74 103 -47 28 21 25 101
-6 126 -30 25 -37 24 -63 -6 -24 -28 -43 -33 -34 -9 6 15 -14 39 -79 92 -25
21 -27 27 -23 82 5 67 30 111 69 121 30 7 74 -14 95 -46 15 -23 22 -25 61 -20
73 9 113 47 113 109 0 31 -23 50 -107 86 -87 36 -149 45 -311 43 -194 -3 -373
-37 -506 -98 -65 -30 -128 -51 -180 -60 -44 -7 -178 -8 -216 0 -13 2 -42 7
-65 11 -95 14 -205 46 -292 85 -57 26 -165 86 -198 111 -62 46 -163 139 -211
193 -85 98 -104 115 -128 115 -38 1 -100 36 -141 81 -22 24 -76 90 -119 147
-43 56 -80 102 -82 102 -2 0 -4 -7 -4 -17z"/>
<path d="M3397 3235 c-1 -2 -36 -5 -77 -8 -69 -6 -92 -9 -160 -22 -14 -3 -38
-8 -55 -11 -16 -3 -31 -7 -33 -9 -7 -7 71 -75 117 -102 90 -54 189 -24 275 84
25 32 44 59 42 60 -4 4 -105 11 -109 8z"/>
<path d="M823 3180 c-27 -11 -39 -53 -25 -85 6 -13 38 -46 71 -73 106 -88 275
-135 491 -136 63 0 218 11 256 18 29 6 146 22 173 25 11 1 8 8 -9 26 -24 25
-83 48 -160 61 -25 4 -47 8 -50 9 -3 1 -18 4 -35 8 -30 7 -59 14 -104 23 -286
59 -421 87 -441 91 -14 2 -52 13 -84 24 -33 10 -60 19 -60 18 -1 0 -11 -4 -23
-9z"/>
<path d="M3060 3038 c-67 -33 -75 -116 -12 -119 145 -7 242 21 242 70 0 57
-149 89 -230 49z"/>
<path d="M3095 2872 c-59 -10 -135 -53 -135 -76 0 -6 52 -2 130 10 43 7 153
55 144 63 -6 6 -107 9 -139 3z"/>
<path d="M1678 2864 c-18 -17 -462 -25 -619 -10 -81 8 -87 7 -101 -13 -22 -31
-11 -66 33 -105 62 -57 135 -87 244 -101 57 -8 179 -8 250 -2 39 4 89 9 112
11 142 14 257 59 278 108 11 28 11 37 -1 60 -20 39 -59 56 -131 56 -34 0 -63
-2 -65 -4z"/>
<path d="M3077 2754 c-62 -12 -137 -42 -137 -54 0 -15 92 -32 147 -27 89 8
116 16 135 38 14 16 15 25 7 40 -12 23 -53 23 -152 3z"/>
<path d="M1817 2644 c-1 -1 -22 -5 -47 -9 -25 -3 -58 -9 -75 -12 -16 -3 -41
-6 -55 -8 -24 -3 -62 -9 -120 -20 -14 -3 -41 -7 -60 -10 -114 -19 -150 -43
-150 -103 0 -135 175 -149 500 -40 52 18 97 33 100 33 32 5 82 31 90 45 16 31
11 67 -12 94 -20 22 -33 26 -96 28 -40 2 -74 3 -75 2z"/>
<path d="M1850 2409 c-350 -122 -392 -137 -402 -147 -18 -18 -17 -60 3 -80 23
-26 114 -46 201 -45 70 1 183 30 250 64 63 32 34 -2 -51 -59 -44 -30 -82 -60
-85 -68 -9 -24 12 -63 44 -83 24 -14 40 -17 66 -11 32 7 175 96 351 218 74 51
80 74 32 121 -42 42 -72 44 -129 7 -100 -64 -97 -63 -80 -41 8 11 25 31 38 45
43 48 13 129 -50 135 -13 1 -97 -24 -188 -56z"/>
<path d="M4063 2295 c-25 -18 -34 -58 -21 -96 22 -63 98 -37 108 37 8 60 2 74
-34 74 -17 0 -41 -7 -53 -15z"/>
<path d="M4249 2287 c-61 -33 -71 -72 -39 -158 28 -73 31 -118 14 -176 -7 -24
-10 -43 -6 -43 3 0 23 14 46 32 55 42 106 105 113 140 3 15 9 28 13 28 4 0 6
17 5 38 -8 135 -59 184 -146 139z"/>
<path d="M2320 2223 c-28 -12 -321 -234 -326 -248 -17 -43 27 -87 81 -79 11 1
40 5 65 8 99 12 214 63 280 123 45 40 51 72 24 129 -28 59 -76 85 -124 67z"/>
<path d="M2624 1853 c-17 -8 -39 -29 -49 -46 -17 -29 -17 -31 1 -44 30 -22
135 -1 156 31 33 49 -44 91 -108 59z"/>
<path d="M2876 1411 c-3 -4 -5 -29 -5 -57 0 -27 -5 -65 -11 -84 -15 -52 -13
-100 6 -107 20 -8 77 47 99 98 17 36 17 41 1 83 -9 24 -23 49 -31 56 -17 14
-53 21 -59 11z"/>
<path d="M2999 1197 c-36 -50 -47 -183 -18 -212 21 -21 58 -8 65 24 3 14 14
47 25 73 24 59 24 79 -2 112 -25 32 -49 33 -70 3z"/>
<path d="M3122 1071 c-18 -24 -33 -53 -33 -65 -1 -12 -2 -45 -3 -74 -1 -39 -7
-57 -19 -63 -16 -9 -48 -101 -82 -236 -16 -62 -19 -77 -31 -138 -37 -195 -37
-446 1 -484 20 -21 26 -12 60 89 54 163 68 276 69 552 1 113 4 210 8 213 4 4
13 -4 19 -19 12 -26 45 -44 57 -31 10 10 6 235 -5 270 l-9 30 -32 -44z"/>
<path d="M2890 1051 c-195 -259 -296 -484 -326 -721 -13 -100 -11 -113 16
-127 41 -21 61 2 98 113 57 173 93 258 198 468 64 128 65 131 63 205 -3 111
-7 117 -49 62z"/>
<path d="M3595 850 c-2 -3 13 -24 34 -45 81 -87 174 -214 244 -335 63 -108
108 -136 192 -118 70 15 81 55 44 155 -54 145 -190 270 -349 322 -46 14 -160
29 -165 21z"/>
<path d="M3226 834 c-19 -19 -19 -16 -1 -106 11 -54 22 -79 41 -95 49 -44 62
-28 58 69 -4 91 -12 117 -44 133 -36 18 -35 18 -54 -1z"/>
<path d="M3503 706 c6 -43 39 -159 57 -201 8 -19 60 -149 117 -292 14 -35 29
-63 33 -63 5 0 22 17 37 37 24 31 28 46 28 97 0 56 -6 70 -59 166 -33 58 -80
143 -106 190 -37 66 -54 87 -80 98 l-33 13 6 -45z"/>
<path d="M3395 648 c2 -7 6 -38 10 -68 3 -30 8 -75 11 -100 3 -25 7 -58 9 -75
2 -16 4 -69 4 -116 1 -90 9 -107 46 -92 13 4 15 20 10 92 -2 47 -7 106 -10
131 -2 25 -7 69 -11 99 -7 63 -19 99 -41 123 -19 21 -34 24 -28 6z"/>
</g>
</svg>
