<?xml version="1.0" standalone="no"?>
<!DOCTYPE svg PUBLIC "-//W3C//DTD SVG 20010904//EN"
 "http://www.w3.org/TR/2001/REC-SVG-20010904/DTD/svg10.dtd">
<svg version="1.0" xmlns="http://www.w3.org/2000/svg"
 width="814.000000pt" height="814.000000pt" viewBox="0 0 814.000000 814.000000"
 preserveAspectRatio="xMidYMid meet">
<metadata>
Created by potrace 1.11, written by Peter Selinger 2001-2013
</metadata>
<g transform="translate(0.000000,814.000000) scale(0.100000,-0.100000)"
fill="#000000" stroke="none">
<path d="M3865 8125 c-117 -23 -186 -45 -212 -66 -7 -6 -13 -9 -13 -5 0 8 -79
-35 -135 -74 -55 -38 -151 -135 -183 -184 -15 -23 -30 -43 -33 -46 -17 -14
-82 -167 -100 -236 -21 -80 -30 -265 -15 -326 3 -16 8 -40 11 -55 18 -91 120
-303 145 -303 6 0 10 -6 10 -13 0 -7 29 -42 65 -77 36 -35 65 -60 65 -55 0 6
4 3 9 -5 6 -8 8 -17 6 -20 -2 -3 -730 -5 -1619 -4 -889 0 -1616 -1 -1616 -3 0
-8 84 -113 91 -113 5 0 8 -3 6 -8 -4 -12 140 -201 148 -194 5 4 5 2 2 -4 -4
-7 6 -26 22 -43 16 -17 27 -31 25 -31 -5 0 44 -69 56 -80 3 -3 22 -28 43 -57
l37 -51 73 5 c155 10 857 9 857 -2 0 -19 51 -86 61 -80 5 4 8 1 7 -7 -2 -7 3
-12 10 -10 6 1 11 -4 10 -10 -2 -7 3 -12 10 -10 6 1 11 -4 10 -10 -2 -7 3 -12
10 -10 6 1 11 -4 10 -10 -2 -7 3 -12 10 -10 6 1 11 -4 10 -10 -2 -7 4 -11 12
-10 8 2 12 1 8 -3 -9 -9 23 -45 34 -39 5 3 7 0 6 -8 -2 -7 3 -12 10 -10 6 1
11 -4 10 -10 -2 -7 3 -12 10 -10 6 1 11 -4 10 -10 -2 -7 3 -12 10 -10 6 1 11
-4 10 -10 -2 -7 4 -11 12 -10 8 2 12 1 8 -3 -9 -9 23 -45 34 -39 5 3 7 0 6 -8
-2 -7 3 -12 10 -10 6 1 11 -4 10 -10 -2 -7 3 -12 10 -10 6 1 11 -4 10 -10 -2
-7 3 -12 10 -10 8 1 11 -2 8 -7 -6 -10 18 -34 26 -26 2 3 5 -2 5 -10 0 -9 -17
-35 -37 -58 -39 -45 -122 -153 -155 -201 -67 -98 -138 -218 -138 -233 0 -6 -4
-10 -8 -8 -4 3 -12 -7 -18 -23 -6 -15 -15 -34 -20 -42 -33 -56 -61 -122 -55
-132 4 -6 3 -8 -3 -5 -6 4 -14 -3 -18 -16 -14 -42 -16 -52 -17 -64 -1 -7 -5
-13 -8 -13 -12 0 -117 -324 -124 -384 -2 -12 -8 -39 -13 -61 -6 -22 -11 -47
-12 -55 0 -8 -5 -40 -10 -70 -6 -30 -12 -66 -15 -80 -2 -14 -5 -33 -5 -42 -1
-17 -21 -18 -279 -18 -268 0 -279 -1 -322 -22 -46 -24 -94 -82 -86 -104 3 -7
1 -14 -4 -16 -12 -4 -20 -117 -8 -124 4 -3 6 -10 2 -15 -7 -13 15 -79 27 -79
6 0 8 -4 5 -9 -8 -12 33 -48 76 -66 31 -12 86 -15 308 -15 209 0 270 -3 270
-12 0 -7 3 -46 7 -87 l6 -74 -32 22 c-17 13 -37 24 -44 25 -7 2 -25 8 -42 15
-16 7 -50 16 -74 21 -77 14 -241 0 -241 -22 0 -5 -4 -6 -10 -3 -14 9 -131 -46
-123 -58 3 -5 1 -7 -5 -3 -6 3 -16 0 -24 -7 -7 -7 -27 -21 -44 -32 -18 -11
-64 -49 -103 -84 -39 -35 -83 -74 -98 -87 l-27 -23 29 5 c208 39 258 46 320
46 81 -1 136 -12 202 -42 34 -15 64 -26 67 -24 3 2 4 1 2 -2 -3 -4 16 -23 42
-44 94 -75 103 -89 106 -172 4 -71 -12 -138 -31 -138 -4 0 -26 5 -48 12 -22 6
-44 11 -48 10 -5 -2 -6 2 -3 7 4 5 -3 12 -14 16 -11 3 -26 12 -32 18 -64 61
-381 178 -548 202 -14 2 -41 6 -60 10 -37 7 -93 13 -122 14 -9 1 -46 21 -81
45 -56 37 -65 40 -61 22 3 -12 6 -30 8 -41 6 -41 57 -281 63 -295 3 -8 7 -24
8 -35 3 -26 10 -63 41 -205 14 -63 27 -126 30 -140 2 -14 16 -77 29 -140 13
-63 27 -127 29 -143 3 -15 7 -35 10 -45 5 -16 8 -31 21 -99 3 -16 8 -35 11
-43 3 -8 8 -31 10 -50 3 -19 9 -51 14 -70 5 -19 12 -48 14 -65 3 -16 12 -59
19 -94 l13 -64 31 50 c18 28 29 54 26 57 -4 3 -1 6 6 6 6 0 16 10 22 23 5 12
15 31 22 42 7 11 23 40 36 64 l23 45 47 -51 c26 -28 60 -67 76 -87 15 -19 32
-33 37 -30 5 3 7 1 6 -4 -4 -11 82 -108 94 -105 4 2 7 -3 5 -10 -1 -6 4 -11
11 -9 8 1 11 -1 8 -6 -6 -10 248 -264 257 -257 4 3 5 2 2 -1 -9 -13 189 -187
200 -176 5 4 5 2 2 -4 -4 -7 5 -20 21 -29 15 -10 31 -24 35 -32 4 -7 15 -13
22 -13 8 0 15 -4 15 -8 0 -13 121 -97 134 -94 6 2 8 0 4 -3 -8 -8 34 -45 51
-45 6 0 11 -4 11 -9 0 -5 15 -16 34 -25 18 -8 39 -22 46 -31 7 -8 16 -15 21
-15 4 0 35 -18 68 -40 33 -22 63 -40 66 -40 4 0 18 -9 32 -20 14 -11 30 -17
36 -13 5 3 7 2 4 -4 -5 -8 61 -52 70 -45 2 1 11 -5 20 -14 24 -21 173 -104
173 -96 0 4 4 2 8 -4 10 -15 322 -177 322 -167 0 5 4 4 8 -2 10 -15 49 -35 67
-35 8 0 15 -5 15 -11 0 -6 6 -9 12 -7 7 3 19 -2 27 -9 7 -8 20 -12 27 -9 8 3
14 2 14 -2 0 -9 90 -46 104 -42 5 1 12 -2 15 -7 10 -14 233 -103 242 -97 5 3
9 0 9 -5 0 -6 9 -11 20 -11 11 0 20 -4 20 -10 0 -5 6 -10 14 -10 12 0 53 -16
131 -50 71 -31 150 -58 157 -54 4 3 8 1 8 -4 0 -12 233 -104 328 -131 37 -10
79 -18 92 -17 14 1 28 -3 32 -8 9 -13 155 10 228 36 30 10 64 21 75 23 11 3
29 9 40 15 21 10 76 33 85 34 6 1 169 65 195 76 24 11 92 37 205 80 47 18 99
39 115 46 17 7 68 27 115 44 47 18 101 39 120 48 46 20 40 18 77 27 19 4 30
12 26 18 -3 6 -1 7 6 3 6 -4 19 -2 28 6 9 7 19 12 22 11 13 -4 51 10 51 19 0
5 4 7 9 4 10 -6 68 15 116 41 17 10 30 16 30 15 0 -1 10 1 23 4 12 4 22 10 22
13 0 4 6 8 13 8 21 0 384 176 397 192 3 3 35 22 73 41 37 19 67 37 67 41 0 4
11 10 25 13 14 4 24 10 21 15 -3 4 0 8 7 8 14 0 99 51 108 65 3 5 8 8 10 7 9
-7 67 35 62 44 -3 6 -1 7 4 4 18 -11 224 146 422 323 121 108 137 123 133 133
-1 4 4 6 10 5 7 -2 12 3 10 10 -1 6 4 11 10 10 7 -2 12 3 10 10 -1 6 4 11 10
10 7 -2 12 3 10 10 -1 6 4 11 10 10 7 -2 12 3 10 10 -1 8 2 11 7 8 10 -7 26
11 26 29 0 6 7 10 15 10 8 1 14 6 12 13 -1 7 4 11 10 10 7 -2 12 3 10 10 -1 8
2 11 7 8 11 -7 33 18 24 27 -3 4 -1 7 5 7 6 0 30 21 54 46 24 26 69 74 100
107 31 34 54 65 51 71 -3 5 -2 7 3 4 5 -3 15 0 22 8 7 8 10 14 7 14 -2 0 9 13
25 28 16 16 28 31 25 33 -2 3 5 5 15 6 11 1 19 -1 17 -5 -3 -12 144 -262 154
-262 5 0 9 9 9 20 0 11 0 21 0 23 1 1 5 20 11 42 5 22 12 51 15 65 2 14 13 66
24 115 10 50 21 101 24 115 2 14 11 57 20 95 8 39 17 82 20 95 2 14 11 57 20
95 8 39 17 82 20 95 10 48 16 75 26 120 5 25 12 56 14 70 2 14 12 57 21 97 9
39 18 84 20 100 2 15 4 28 5 28 2 0 5 12 13 55 3 14 13 59 22 100 9 41 18 89
20 105 2 17 8 43 14 58 6 16 11 33 11 38 0 6 -42 -19 -94 -54 -98 -68 -107
-72 -168 -81 -21 -3 -55 -9 -75 -12 -21 -3 -56 -10 -78 -16 -22 -6 -47 -12
-55 -13 -8 -2 -15 -4 -15 -5 0 -1 -14 -3 -31 -5 -17 -3 -44 -10 -60 -16 -16
-7 -32 -13 -36 -14 -5 -2 -10 -4 -13 -5 -3 -1 -8 -3 -12 -5 -52 -14 -63 -19
-63 -27 0 -5 -4 -6 -10 -3 -5 3 -10 1 -10 -5 0 -6 -4 -8 -10 -5 -10 6 -132
-53 -138 -67 -2 -5 -8 -8 -13 -8 -5 0 -32 -14 -60 -32 -33 -20 -68 -33 -94
-34 -48 -3 -45 -10 -46 114 -1 72 2 86 20 106 12 12 18 26 14 29 -3 4 -1 7 6
7 7 0 26 14 44 30 38 37 118 84 178 106 51 18 201 26 260 13 22 -5 57 -11 77
-14 38 -5 65 -10 115 -21 15 -3 27 -1 27 4 0 9 -6 15 -130 122 -69 61 -184
138 -213 144 -7 2 -25 8 -42 15 -55 21 -60 23 -110 28 -110 12 -180 2 -279
-38 -39 -16 -72 -29 -74 -29 -2 0 0 -4 3 -10 3 -5 0 -7 -8 -4 -11 4 -14 18
-10 57 3 29 6 66 7 82 l1 30 290 1 c160 0 298 3 307 6 68 17 119 103 121 200
1 96 -17 150 -65 195 -43 40 -69 43 -364 43 l-284 0 -1 23 c-2 48 -15 164 -24
207 -3 14 -8 41 -11 60 -3 19 -7 41 -10 49 -2 8 -7 30 -10 50 -3 20 -9 40 -12
46 -3 5 -7 21 -9 35 -12 109 -220 618 -247 603 -6 -3 -8 -3 -4 2 14 15 -172
312 -186 297 -4 -4 -6 -2 -4 4 3 11 -19 45 -64 97 -15 18 -28 35 -28 38 0 3
45 49 100 103 55 54 100 102 100 107 0 5 3 8 8 6 11 -3 222 208 223 224 4 52
9 73 18 78 10 7 682 5 818 -2 l72 -4 103 140 c57 77 102 144 100 151 -2 6 0 8
3 4 6 -6 106 121 202 257 l21 31 -1714 -1 c-1398 0 -1715 2 -1719 13 -3 7 -1
11 4 8 15 -10 159 133 207 206 26 39 47 77 47 84 0 8 4 14 8 14 12 0 58 149
67 219 15 104 2 275 -26 351 -3 8 -6 22 -8 30 -2 8 -8 16 -14 18 -5 2 -8 8 -5
12 8 13 -50 124 -97 187 -21 30 -62 76 -90 104 -57 56 -162 131 -172 122 -3
-4 -6 -2 -6 4 0 9 -88 53 -115 57 -5 1 -16 5 -22 9 -7 5 -17 6 -22 2 -5 -3
-12 -1 -15 4 -6 8 -29 14 -114 27 -77 12 -154 12 -217 -1z m285 -140 c83 -21
173 -63 233 -109 26 -20 47 -33 47 -30 0 3 25 -23 55 -58 30 -34 55 -67 55
-71 0 -5 5 -5 10 -2 6 4 10 3 9 -2 -1 -4 16 -46 39 -93 23 -47 44 -96 47 -110
3 -14 10 -49 16 -77 24 -118 7 -268 -42 -379 -12 -27 -22 -52 -21 -56 1 -5 -2
-8 -6 -8 -5 0 -14 -11 -20 -25 -6 -13 -24 -38 -39 -56 -15 -17 -28 -35 -28
-40 0 -5 -4 -9 -10 -10 -18 -1 -35 -21 -28 -32 3 -5 1 -7 -4 -4 -6 4 -17 -1
-24 -10 -8 -9 -45 -37 -84 -62 -38 -24 -72 -48 -73 -53 -2 -4 -8 -5 -13 -2 -6
3 -15 2 -22 -4 -40 -30 -42 -24 -42 102 l0 121 35 23 c53 36 120 104 113 115
-3 6 -1 7 4 4 10 -7 28 20 25 36 -1 4 2 7 7 7 17 0 52 127 55 196 4 88 -32
234 -57 234 -6 0 -7 3 -4 6 9 9 -29 61 -84 116 -51 50 -122 91 -196 113 -42
13 -197 15 -233 4 -68 -21 -118 -44 -113 -52 3 -6 1 -7 -4 -4 -6 4 -24 -3 -39
-15 -44 -33 -124 -119 -119 -128 3 -4 -1 -10 -9 -13 -15 -6 -51 -93 -62 -149
-36 -177 41 -367 192 -474 l40 -29 0 -121 0 -121 -32 13 c-17 7 -34 10 -38 7
-3 -4 -6 -2 -6 4 0 6 -15 16 -32 24 -18 7 -37 19 -41 26 -4 7 -14 13 -21 13
-7 0 -21 9 -31 20 -10 11 -22 17 -27 14 -4 -3 -7 -2 -6 3 2 5 -10 22 -27 39
-47 47 -82 89 -95 115 -7 13 -16 26 -20 29 -17 12 -70 166 -85 245 -9 48 -4
210 7 245 3 8 10 30 16 49 6 19 9 38 6 42 -3 5 -1 9 4 9 6 0 12 10 16 23 3 12
21 48 40 80 19 31 32 57 28 57 -4 0 4 7 16 16 12 8 19 21 16 27 -4 7 -4 9 0 5
9 -7 82 63 78 75 -1 5 1 6 6 3 5 -3 24 9 43 27 19 18 39 33 44 35 32 8 45 14
45 23 0 5 3 8 8 7 4 -1 23 5 42 15 107 51 309 66 440 32z m-32 -360 c34 -15
67 -34 73 -41 6 -8 16 -11 23 -7 6 3 8 3 4 -1 -4 -5 4 -20 18 -35 32 -33 74
-119 80 -162 17 -113 -10 -203 -85 -288 l-21 -24 0 26 c0 37 1 32 -17 74 -14
36 -53 93 -53 79 0 -3 -9 3 -19 13 -27 27 -108 49 -160 44 -106 -10 -183 -83
-196 -184 -7 -54 -12 -59 -35 -32 -9 12 -19 21 -21 20 -2 -1 -3 0 -2 2 1 2 -6
16 -16 30 -35 51 -55 123 -51 186 4 58 6 70 13 82 4 6 8 23 9 36 1 14 5 24 8
22 3 -2 11 9 18 24 26 58 140 146 199 155 7 1 15 4 18 7 3 3 38 5 78 4 55 -2
88 -9 135 -30z m-78 -457 c0 -5 8 -8 17 -8 9 0 14 -3 10 -6 -3 -4 -1 -18 6
-33 9 -19 12 -88 11 -245 l-1 -220 -99 0 -99 1 0 214 c0 118 1 224 3 236 3 12
15 34 29 47 21 21 33 25 74 23 27 -1 49 -5 49 -9z m-291 -637 c29 -1 19 -15
-12 -17 -158 -11 -485 -90 -647 -157 -14 -6 -27 -11 -30 -11 -10 -2 -95 -40
-100 -46 -3 -3 -9 -5 -15 -6 -24 -3 -55 -17 -55 -26 0 -5 -4 -6 -10 -3 -5 3
-10 1 -10 -5 0 -6 -3 -9 -7 -7 -5 3 -35 -10 -68 -29 -33 -18 -75 -41 -92 -50
-18 -9 -33 -20 -33 -25 0 -5 -3 -8 -7 -7 -13 3 -63 -24 -58 -32 2 -4 -1 -7 -8
-8 -7 0 -22 -3 -35 -6 -13 -3 -34 -1 -47 4 -12 5 -43 11 -66 15 -24 3 -51 8
-59 10 -17 5 -73 13 -195 30 -27 4 -55 10 -62 14 -15 8 -123 111 -123 117 0
10 -64 59 -93 72 -87 37 -219 -25 -282 -132 -9 -15 -48 -17 -453 -18 l-442 -2
-32 34 c-17 19 -30 36 -27 36 2 1 -6 14 -18 30 -12 16 -54 72 -93 124 l-71 95
38 5 c28 4 3063 4 3212 1z m3880 -5 c2 -4 -16 -35 -40 -68 -24 -34 -43 -65
-41 -70 1 -5 -2 -7 -8 -3 -5 3 -10 2 -10 -3 0 -5 -11 -22 -25 -38 -14 -16 -36
-45 -48 -64 -51 -81 -7 -75 -506 -72 l-444 2 -37 34 c-58 52 -76 60 -160 70
-41 5 -92 -22 -150 -78 -30 -30 -62 -54 -70 -54 -17 1 -136 -11 -190 -17 -19
-3 -60 -7 -90 -10 -68 -6 -118 -13 -190 -25 -124 -20 -122 -20 -171 10 -26 16
-50 26 -53 23 -3 -4 -6 -1 -6 6 0 6 -11 16 -25 21 -13 5 -42 21 -65 35 -22 14
-40 22 -40 19 0 -4 -6 -2 -13 4 -12 10 -227 109 -245 113 -4 1 -18 5 -30 10
-13 5 -28 7 -33 3 -5 -3 -9 0 -9 7 0 7 -3 9 -7 6 -3 -4 -11 -3 -17 2 -15 11
-145 51 -216 66 -8 2 -47 10 -85 19 -93 20 -112 23 -181 32 -33 3 -66 8 -74
10 -8 1 -24 3 -35 4 -18 2 -17 3 3 8 32 9 3306 7 3311 -2z m-3339 -130 c25 -3
63 -8 85 -10 60 -7 144 -22 235 -42 14 -3 38 -7 53 -10 16 -3 47 -12 69 -20
22 -7 44 -11 49 -8 5 3 9 1 9 -4 0 -8 65 -27 72 -21 2 1 14 -4 28 -11 14 -8
27 -15 30 -16 3 0 14 -4 25 -9 99 -40 135 -53 135 -47 0 4 4 2 8 -4 4 -6 45
-29 92 -52 85 -41 181 -92 190 -102 11 -12 60 -40 60 -35 0 3 10 -3 22 -15 12
-11 25 -20 29 -20 4 0 14 -6 21 -13 29 -28 76 -56 83 -49 5 4 5 2 2 -4 -7 -12
20 -29 38 -25 6 2 7 -1 3 -5 -8 -8 32 -41 45 -36 4 1 6 -2 5 -6 -4 -11 67 -73
76 -67 3 3 5 3 3 0 -5 -7 217 -231 226 -227 4 2 6 0 5 -5 -4 -13 38 -63 47
-55 3 4 5 3 3 -3 -4 -14 27 -56 36 -47 4 4 7 3 5 -3 -4 -17 12 -45 22 -39 5 3
8 2 7 -3 -3 -9 61 -106 74 -111 4 -2 8 -9 8 -16 0 -7 8 -21 18 -32 20 -23 31
-42 87 -147 23 -42 44 -75 47 -72 2 3 5 -1 5 -8 0 -7 13 -42 30 -78 17 -35 33
-74 37 -86 4 -13 11 -23 15 -23 3 0 7 -8 8 -17 1 -10 17 -63 37 -118 33 -94
63 -195 71 -240 2 -11 13 -63 23 -115 51 -248 60 -514 26 -810 -4 -37 -20
-133 -40 -234 -2 -10 -11 -43 -19 -73 -9 -31 -14 -58 -11 -61 3 -3 2 -10 -3
-16 -10 -13 -83 -225 -84 -243 0 -7 -4 -10 -9 -7 -4 3 -8 -1 -8 -9 0 -8 -12
-41 -27 -73 -15 -33 -28 -61 -28 -64 -1 -3 -8 -19 -18 -36 -9 -17 -13 -35 -9
-39 4 -5 2 -6 -3 -2 -6 3 -17 -9 -25 -26 -7 -18 -29 -57 -49 -87 -19 -30 -34
-60 -34 -67 0 -7 -2 -11 -5 -8 -4 4 -66 -86 -64 -92 1 -1 -7 -13 -18 -25 -82
-98 -158 -197 -154 -202 2 -3 1 -4 -2 -2 -3 2 -24 -17 -47 -42 -23 -25 -54
-57 -70 -70 -15 -13 -25 -28 -21 -33 3 -5 -1 -9 -10 -9 -8 0 -26 -14 -40 -31
-14 -17 -26 -28 -26 -25 0 3 -10 -4 -22 -16 -13 -13 -22 -27 -20 -33 2 -5 1
-7 -3 -3 -6 5 -126 -82 -155 -112 -9 -10 -174 -116 -225 -146 -27 -15 -56 -35
-63 -44 -8 -8 -11 -10 -8 -3 5 8 0 8 -18 0 -13 -7 -23 -14 -21 -18 2 -3 -1 -6
-8 -6 -7 0 -52 -20 -102 -44 -49 -23 -92 -42 -95 -42 -3 0 -32 -12 -65 -27
-33 -15 -63 -28 -68 -28 -25 -5 -63 -16 -72 -21 -5 -3 -14 -6 -20 -8 -5 -1
-63 -16 -128 -32 -226 -59 -369 -76 -632 -75 -214 0 -313 8 -475 41 -41 8 -86
16 -100 18 -14 2 -25 4 -25 5 0 1 -9 3 -20 5 -11 3 -69 20 -129 39 -61 19
-113 33 -118 30 -4 -3 -8 -1 -8 3 0 5 -17 15 -37 22 -21 8 -55 22 -77 32 -21
10 -42 16 -47 14 -4 -3 -9 -1 -11 3 -1 5 -39 26 -82 47 -44 20 -114 58 -155
83 -42 24 -81 45 -88 45 -7 0 -10 4 -8 8 4 6 -16 19 -35 23 -3 1 -14 9 -25 18
-11 10 -58 46 -105 80 -47 35 -100 77 -119 95 -19 18 -38 30 -43 27 -5 -3 -8
-2 -6 3 1 4 -51 61 -115 126 -64 64 -129 134 -144 155 -15 20 -30 39 -34 42
-3 3 -25 32 -50 65 -24 33 -46 62 -49 65 -3 3 -11 17 -19 32 -8 15 -19 24 -25
21 -6 -3 -8 -3 -5 1 6 6 -85 173 -110 202 -5 7 -7 15 -4 18 4 3 1 6 -5 6 -7 0
-12 4 -12 9 0 4 -17 44 -37 87 -20 43 -38 81 -38 84 -1 3 -8 21 -17 40 -24 55
-88 248 -88 265 0 8 -3 15 -7 15 -5 0 -9 10 -10 23 -2 25 -12 75 -20 97 -3 8
-7 29 -9 45 -2 17 -8 50 -14 75 -46 211 -53 572 -16 808 3 18 8 50 11 72 8 54
50 235 68 293 8 26 13 47 11 47 -2 0 6 21 16 46 11 25 17 51 13 57 -3 7 -2 9
2 4 5 -4 18 21 30 55 26 75 116 264 153 322 14 23 25 46 25 53 0 7 3 10 6 8 4
-2 15 14 25 36 11 21 22 39 26 39 4 0 13 14 20 30 7 17 16 30 21 30 4 0 10 8
13 18 3 9 17 30 31 46 13 16 22 34 18 40 -3 6 -3 8 2 4 4 -4 21 9 37 30 16 20
46 57 66 82 49 60 272 280 284 280 5 0 6 5 3 10 -4 6 -3 9 2 8 9 -3 68 39 102
72 14 13 166 118 210 145 11 6 13 4 8 -8 -11 -30 9 -18 28 16 10 19 23 34 29
34 6 0 29 11 51 25 22 14 50 28 63 32 12 4 22 12 22 18 0 6 3 9 6 5 4 -3 27 4
53 17 39 20 83 38 246 101 11 5 29 10 40 12 10 2 23 9 27 16 4 6 8 9 8 6 0 -4
42 5 93 18 50 13 101 26 112 29 11 2 34 7 50 11 32 7 36 7 105 17 25 3 56 8
70 11 13 3 61 8 105 11 44 3 81 7 82 8 5 4 351 -3 393 -8z m-2410 -156 c3 -1
8 -2 13 -1 4 0 6 -5 5 -11 -2 -7 3 -12 10 -10 6 1 11 -4 10 -10 -2 -7 4 -11
12 -10 8 2 12 1 8 -3 -9 -9 23 -45 34 -39 5 3 7 0 6 -8 -2 -7 3 -12 10 -10 6
1 11 -4 10 -10 -2 -7 3 -12 9 -10 7 1 12 -4 10 -10 -1 -7 4 -12 10 -10 7 1 12
-4 10 -10 -1 -7 5 -11 13 -10 8 2 12 1 8 -3 -9 -9 23 -45 34 -39 5 3 7 0 6 -8
-2 -7 3 -12 9 -11 7 2 12 -3 10 -10 -1 -6 5 -11 13 -9 8 2 12 0 8 -3 -8 -8 63
-81 75 -77 4 1 6 -4 5 -10 -2 -7 3 -12 10 -10 8 1 11 -2 7 -8 -3 -5 -2 -10 4
-10 5 0 9 -9 8 -20 -1 -11 -5 -20 -9 -20 -4 0 -33 -25 -63 -55 -30 -30 -58
-55 -62 -55 -12 0 -343 334 -340 342 1 4 -5 15 -13 25 -18 21 -19 65 -2 85 6
8 10 18 7 21 -3 4 -2 5 1 3 3 -2 21 6 40 19 29 20 50 24 74 15z m4481 -67 c27
-16 34 -33 30 -75 -1 -10 3 -19 8 -19 6 -1 16 -2 23 -3 6 0 13 -6 15 -11 3 -9
-256 -270 -371 -374 l-27 -25 -70 70 -70 69 198 193 c113 110 206 192 216 192
11 0 32 -8 48 -17z m-477 -208 c-72 -68 -103 -88 -104 -67 -1 4 -27 27 -60 52
-33 25 -59 48 -60 51 0 8 38 15 125 25 33 4 85 10 115 13 30 4 57 6 59 4 3 -2
-31 -37 -75 -78z m-3476 26 c11 -6 7 -13 -17 -30 l-32 -23 -37 37 -37 37 54
-6 c30 -4 61 -11 69 -15z m-1055 -2066 c0 -44 -2 -89 -2 -100 -1 -19 -8 -20
-262 -19 l-262 0 -19 24 c-15 18 -18 36 -16 83 5 95 -2 93 304 93 l259 0 -2
-81z m5952 -31 c21 -45 19 -116 -3 -145 -19 -22 -21 -22 -285 -23 -170 -1
-268 3 -270 9 -2 9 -1 127 2 175 1 14 35 16 271 16 l270 0 15 -32z m-6041
-465 c33 -17 75 -44 92 -60 17 -16 33 -27 35 -24 3 3 6 -1 7 -7 0 -7 11 -51
22 -98 12 -47 23 -92 25 -100 2 -8 4 -16 4 -17 1 -2 1 -5 1 -8 0 -3 6 -21 14
-40 8 -19 13 -35 11 -35 -2 0 6 -24 16 -52 11 -29 22 -60 24 -68 16 -64 135
-320 148 -320 6 0 7 -3 4 -7 -8 -7 54 -123 65 -123 5 0 8 -6 8 -13 0 -14 109
-180 122 -185 4 -2 8 -9 8 -14 0 -6 7 -18 15 -27 55 -58 78 -101 55 -101 -5 0
-10 9 -10 20 0 20 0 20 -29 -1 -16 -11 -54 -27 -84 -34 -49 -11 -59 -11 -95 5
-21 10 -49 28 -61 41 -36 38 -89 154 -83 182 1 4 -3 7 -9 7 -5 0 -8 4 -4 10 9
15 -43 108 -81 146 -56 54 -133 82 -217 78 -32 -1 -55 1 -52 5 2 5 -32 33 -78
62 -45 30 -88 60 -95 67 -8 6 -19 9 -25 5 -7 -3 -9 -3 -5 2 7 8 -94 85 -112
85 -4 0 -10 4 -12 8 -4 11 -124 92 -137 92 -5 0 -11 4 -13 9 -4 11 -106 81
-118 81 -4 0 -10 6 -13 14 -4 10 13 9 76 -8 45 -12 88 -25 95 -29 6 -5 17 -5
22 -2 6 3 10 1 10 -4 0 -6 6 -11 13 -11 8 0 49 -17 93 -39 43 -21 83 -38 88
-39 5 0 12 -5 15 -10 3 -5 29 -23 56 -39 143 -87 240 -73 303 42 13 23 17 57
17 151 0 112 -2 123 -25 156 -13 20 -28 34 -32 32 -4 -3 -8 0 -8 6 0 21 -150
154 -150 133 0 -4 -4 -3 -8 4 -10 16 -113 61 -172 75 -47 11 -50 13 -28 21 12
6 43 12 68 14 25 3 46 6 48 7 9 10 125 -20 176 -45z m5844 -43 c45 -10 40 -22
-15 -36 -63 -15 -143 -50 -143 -62 0 -5 -3 -7 -8 -4 -11 7 -83 -50 -74 -59 4
-5 2 -5 -4 -2 -16 9 -132 -116 -141 -151 -8 -32 -9 -197 -1 -232 22 -97 82
-143 178 -136 42 3 154 55 189 88 12 10 21 16 21 12 0 -4 9 1 21 12 12 10 24
18 28 18 14 -3 51 16 51 26 0 6 4 9 9 6 5 -3 26 2 47 11 22 9 41 17 44 18 3 1
31 9 63 19 32 10 61 16 63 13 3 -2 -15 -17 -40 -33 -24 -15 -43 -31 -41 -34 2
-4 -2 -7 -9 -7 -14 0 -73 -39 -97 -65 -9 -10 -18 -15 -21 -13 -2 3 -29 -13
-58 -35 -30 -22 -58 -40 -62 -40 -5 0 -6 -5 -3 -10 4 -6 2 -9 -3 -8 -9 3 -169
-98 -177 -113 -3 -4 25 -18 61 -31 80 -28 146 -85 137 -118 -6 -21 -7 -20 -34
10 -16 17 -29 28 -29 23 0 -4 -7 3 -16 15 -8 12 -20 20 -25 17 -5 -4 -9 -2 -9
3 0 16 -102 54 -156 59 -66 6 -155 -12 -181 -37 -12 -10 -23 -17 -26 -14 -2 3
-20 -13 -38 -35 -34 -40 -59 -93 -78 -166 -17 -65 -72 -147 -114 -171 -46 -26
-110 -24 -182 4 -67 26 -75 42 -42 82 15 17 24 37 21 42 -4 6 -2 8 4 4 6 -3
13 2 17 13 3 11 12 22 20 25 8 3 15 12 15 19 0 8 11 27 25 43 14 16 25 35 25
42 0 6 4 12 8 12 10 0 37 50 34 63 -1 4 3 7 8 7 6 0 10 6 10 14 0 8 4 16 8 18
12 4 112 203 112 221 0 9 4 17 8 19 18 7 126 313 153 434 12 54 18 62 97 126
84 68 232 99 350 74z m-6598 -457 c3 -3 46 -32 95 -65 50 -32 92 -62 95 -65 7
-8 94 -63 97 -61 2 1 15 -10 29 -23 15 -14 33 -25 40 -25 8 0 14 -4 14 -8 0
-10 62 -47 73 -44 5 1 6 -2 2 -8 -3 -5 -1 -10 6 -10 8 0 9 -3 0 -13 -6 -8 -7
-18 -3 -22 4 -5 2 -5 -5 -1 -21 12 -63 -74 -63 -128 0 -41 38 -148 59 -166 4
-3 19 -25 35 -50 39 -60 196 -221 209 -213 6 3 7 2 4 -4 -3 -5 6 -18 20 -29
14 -10 42 -34 62 -51 20 -18 39 -33 43 -33 4 0 13 -6 20 -13 26 -25 148 -109
148 -101 0 4 9 -2 21 -14 11 -12 26 -19 32 -16 7 4 9 4 5 -1 -4 -4 0 -14 8
-22 8 -8 11 -20 7 -26 -22 -34 2 -167 30 -167 6 0 7 -3 3 -7 -10 -10 84 -94
96 -87 6 4 8 2 5 -3 -4 -6 1 -14 11 -18 78 -31 150 -21 209 30 23 19 43 35 46
35 2 0 21 -7 41 -15 20 -8 39 -15 42 -14 4 0 10 -5 14 -11 8 -14 180 -91 180
-82 0 4 4 2 8 -3 6 -9 87 -49 102 -51 3 0 23 -8 45 -18 39 -17 196 -74 225
-82 8 -2 53 -15 100 -29 46 -14 90 -23 97 -21 7 3 13 0 13 -6 0 -6 3 -9 6 -6
3 4 20 2 37 -3 36 -10 153 -22 212 -21 104 1 191 23 257 67 24 16 44 22 60 18
12 -3 33 -6 46 -7 12 0 22 -4 22 -8 0 -5 3 -7 8 -6 6 1 84 -11 175 -28 10 -2
46 -6 80 -9 35 -3 71 -8 82 -10 11 -2 45 -4 75 -4 l55 -1 0 -329 c0 -181 -3
-332 -6 -336 -4 -3 -26 1 -50 9 -23 8 -46 13 -51 10 -4 -3 -8 -1 -8 4 0 7 -38
23 -95 38 -5 2 -47 16 -92 32 -46 16 -83 27 -83 25 0 -3 -6 -1 -12 4 -14 11
-266 98 -283 98 -5 0 -12 3 -15 6 -3 3 -50 20 -105 38 -55 18 -107 35 -115 38
-47 18 -327 115 -335 116 -5 2 -15 6 -21 9 -6 4 -21 9 -35 12 -13 3 -62 19
-109 36 -47 17 -92 33 -101 35 -8 2 -32 10 -53 19 -20 8 -40 15 -44 14 -4 -1
-17 3 -29 10 -12 6 -30 13 -40 15 -10 1 -24 6 -30 10 -7 5 -17 5 -23 2 -6 -3
-10 -1 -10 5 0 7 -6 10 -14 7 -8 -3 -16 -3 -18 1 -3 7 -143 59 -178 67 -8 2
-16 4 -17 5 -2 2 -7 4 -13 5 -5 1 -11 3 -12 4 -2 1 -65 23 -140 49 -83 29
-155 60 -185 82 -26 19 -52 33 -58 31 -5 -1 -7 0 -3 4 9 9 -62 71 -76 67 -6
-2 -8 -1 -4 3 4 4 -10 21 -30 38 -20 18 -76 70 -125 117 -49 47 -95 84 -101
82 -6 -2 -8 -1 -4 3 4 4 -5 19 -20 34 -15 15 -64 66 -108 113 -45 48 -85 84
-89 80 -4 -4 -5 0 -3 8 2 9 -3 14 -12 12 -8 -2 -12 0 -8 4 9 8 -63 90 -75 86
-5 -1 -6 1 -3 6 2 4 -19 33 -48 65 -29 31 -51 57 -49 57 2 0 -6 10 -17 23 -12
12 -36 41 -53 64 -18 23 -34 43 -37 43 -3 0 -23 -32 -45 -71 -22 -38 -46 -76
-54 -82 -8 -7 -12 -7 -8 -1 3 6 -1 42 -9 80 -8 38 -17 78 -19 89 -6 35 -23
118 -45 215 -12 52 -22 103 -23 113 -1 9 -5 17 -10 17 -4 0 -5 4 -2 10 3 5 1
27 -4 47 -6 21 -13 54 -16 73 -3 19 -10 51 -15 70 -5 19 -12 53 -15 75 -3 22
-8 46 -11 54 -2 8 -7 29 -10 48 l-5 34 48 -33 c26 -18 50 -36 53 -39z m7215 2
c-1 -15 -4 -32 -7 -37 -5 -7 -18 -65 -32 -139 -1 -5 -5 -23 -9 -40 -4 -16 -9
-41 -11 -55 -3 -14 -18 -90 -35 -170 -17 -80 -34 -157 -36 -172 -3 -16 -12
-56 -20 -90 -17 -74 -27 -125 -30 -153 -3 -36 -30 -8 -75 78 -13 26 -27 47
-31 47 -3 0 -28 -28 -55 -62 -27 -35 -64 -80 -84 -102 -19 -21 -34 -44 -32
-50 2 -6 1 -8 -3 -4 -9 9 -71 -62 -67 -76 2 -6 0 -8 -4 -4 -4 4 -16 -2 -26
-15 -11 -12 -35 -38 -53 -58 -19 -20 -31 -40 -27 -45 4 -4 3 -5 -3 -2 -5 3
-48 -37 -95 -88 -47 -50 -88 -92 -91 -93 -12 -2 -134 -126 -131 -133 1 -5 -2
-7 -6 -6 -7 3 -105 -78 -169 -139 -13 -13 -32 -27 -44 -33 -11 -6 -17 -15 -14
-21 4 -5 3 -9 -2 -8 -17 4 -43 -14 -36 -25 3 -6 2 -8 -2 -3 -5 4 -15 1 -24 -7
-9 -8 -56 -26 -106 -41 -49 -15 -133 -40 -185 -56 -117 -36 -108 -34 -150 -43
-19 -5 -41 -13 -49 -20 -8 -6 -17 -10 -20 -9 -3 2 -31 -4 -61 -13 -30 -9 -62
-18 -70 -19 -8 -2 -34 -10 -58 -19 -23 -8 -43 -15 -45 -14 -1 1 -33 -9 -72
-21 -38 -13 -77 -25 -85 -26 -8 -2 -46 -13 -85 -25 -70 -21 -228 -69 -317 -96
-27 -8 -70 -21 -98 -29 -123 -37 -153 -46 -290 -86 -80 -24 -147 -47 -148 -51
-2 -5 -7 -6 -12 -3 -7 4 -45 -5 -90 -23 -22 -8 -22 -8 -62 -16 -21 -5 -38 -11
-38 -15 0 -4 -8 -7 -17 -8 -33 -2 -153 -37 -178 -52 -5 -3 -14 -6 -20 -6 -18
-1 -80 -17 -90 -23 -5 -4 -20 -8 -33 -10 l-22 -3 2 323 3 322 40 2 c61 2 227
15 255 18 92 13 190 29 220 36 19 5 47 11 62 14 15 2 32 7 36 10 5 3 24 -6 43
-20 36 -27 79 -48 92 -46 4 1 7 -3 7 -9 0 -5 8 -9 18 -7 9 1 24 -2 32 -7 23
-15 240 -14 322 2 109 21 113 21 113 23 0 1 9 3 20 4 22 3 130 33 155 43 8 3
18 5 23 5 4 -1 7 3 7 9 0 5 4 8 9 4 9 -5 121 32 131 44 3 3 16 8 30 10 14 1
28 8 32 15 4 6 8 8 8 4 0 -7 178 68 198 84 6 6 12 8 12 5 0 -4 31 9 69 28 38
19 73 35 78 35 4 0 22 -13 38 -29 45 -41 74 -54 133 -58 36 -3 52 0 52 8 0 7
3 10 6 6 12 -11 68 25 116 74 50 52 81 126 72 175 -6 32 3 64 19 64 22 1 188
116 180 125 -5 4 -3 6 2 2 13 -7 161 101 158 114 -2 5 0 8 5 7 15 -3 42 15 35
25 -3 5 -2 7 4 4 12 -8 170 144 231 221 23 30 39 59 35 64 -3 6 -2 8 4 5 6 -4
24 23 40 59 24 51 30 77 29 121 -1 34 -7 58 -14 61 -7 2 -10 7 -8 11 3 4 -8
22 -25 40 -20 23 -27 37 -21 48 5 8 11 14 13 13 9 -6 68 37 61 44 -4 4 -2 6 3
4 14 -4 145 81 145 95 0 6 3 7 6 4 4 -4 28 8 53 27 25 18 89 63 143 99 53 36
95 67 93 69 -2 2 4 4 14 5 14 1 18 -5 16 -26z m-6615 -389 c0 -4 -13 -16 -30
-25 -32 -19 -39 -15 -15 9 8 9 15 12 15 8 0 -5 5 -3 12 4 14 14 18 15 18 4z
m240 -94 c3 -3 12 -8 20 -10 8 -2 22 -12 31 -23 19 -23 62 -105 55 -105 -7 0
29 -101 53 -148 12 -23 26 -42 32 -42 6 0 8 -4 5 -8 -7 -12 61 -76 103 -97 38
-19 71 -27 119 -29 17 0 32 -4 32 -7 0 -13 -137 -139 -151 -139 -5 0 -51 29
-103 64 -52 36 -97 62 -102 58 -4 -4 -4 -1 0 6 4 6 3 12 -2 12 -5 0 -22 11
-38 25 -16 14 -35 25 -42 25 -7 0 -10 5 -7 10 3 6 3 10 -2 10 -9 0 -57 38 -93
75 -14 14 -30 22 -35 18 -6 -4 -7 -4 -3 1 7 9 -42 62 -54 59 -4 -2 -7 0 -5 5
1 4 -10 21 -25 37 -16 16 -28 33 -28 38 0 4 -5 5 -12 1 -6 -4 -8 -3 -4 4 3 6
2 13 -3 17 -12 7 5 59 25 76 7 6 11 16 7 23 -3 6 -3 8 2 4 4 -4 21 2 38 14 16
11 43 25 61 29 36 9 119 7 126 -3z m5530 -30 c28 -6 104 -55 127 -82 13 -14
21 -26 18 -26 -2 0 -1 -10 4 -23 7 -19 3 -30 -20 -56 -16 -19 -29 -38 -29 -44
0 -6 -2 -8 -5 -5 -3 2 -31 -20 -64 -51 -67 -65 -88 -83 -153 -132 -26 -20 -44
-40 -40 -44 4 -5 2 -5 -4 -2 -14 8 -77 -37 -66 -47 4 -4 3 -7 -3 -5 -18 5 -65
-24 -58 -35 3 -6 3 -8 -2 -4 -4 4 -26 -5 -49 -20 -22 -15 -53 -34 -68 -41 -15
-8 -25 -17 -23 -21 2 -4 -4 -7 -14 -6 -19 1 -42 24 -162 154 -31 34 -59 59
-63 57 -3 -3 -2 0 3 6 7 8 18 9 40 1 55 -19 170 -8 224 21 60 32 130 109 142
157 1 3 9 21 18 41 9 20 18 47 21 60 11 62 55 130 87 137 7 2 17 7 22 11 7 7
83 6 117 -1z m-4765 -595 c-38 -37 -69 -71 -67 -76 1 -4 -2 -6 -7 -3 -5 4 -11
3 -13 -1 -1 -5 -26 -29 -55 -55 -29 -27 -49 -48 -45 -49 4 0 -3 -4 -16 -10
-15 -5 -21 -13 -16 -21 4 -7 4 -10 -1 -6 -4 4 -24 -9 -44 -28 -43 -41 -78 -40
-123 3 -65 62 -67 94 -9 148 75 67 86 80 83 90 -2 5 0 7 3 3 4 -4 31 15 59 42
28 26 65 61 81 76 17 15 29 32 28 36 -2 4 3 7 10 6 6 -2 11 3 9 10 -1 8 2 11
6 8 5 -3 18 4 28 15 18 20 18 19 88 -51 l71 -71 -70 -66z m3962 126 c26 -28
61 -65 78 -83 16 -17 33 -30 37 -29 5 2 7 -3 6 -10 -2 -6 3 -11 10 -9 8 1 11
-2 8 -7 -3 -5 12 -25 34 -45 22 -20 40 -39 40 -42 0 -4 21 -27 46 -52 40 -39
45 -48 40 -75 -3 -17 -13 -38 -21 -47 -8 -9 -12 -20 -8 -25 5 -4 3 -5 -3 -2
-6 3 -21 -4 -35 -16 -44 -41 -60 -31 -255 164 l-183 183 72 72 c40 40 75 73
79 73 4 1 28 -22 55 -50z m-3754 -177 c10 -12 23 -19 29 -16 7 4 8 2 4 -4 -4
-7 -4 -12 1 -12 4 0 24 -14 43 -30 19 -16 41 -35 48 -40 6 -6 12 -8 12 -5 0 4
7 -1 16 -10 24 -24 151 -107 214 -141 30 -16 58 -33 62 -39 5 -7 8 -7 8 0 0 6
4 5 8 -2 10 -15 214 -112 302 -143 36 -13 69 -27 75 -32 5 -4 17 -8 27 -8 24
0 23 -16 -1 -23 -24 -6 -208 0 -241 8 -68 16 -127 28 -147 29 -13 0 -23 4 -23
9 0 4 -7 7 -16 7 -14 0 -145 41 -184 57 -8 3 -22 7 -30 7 -8 0 -17 3 -20 6 -7
8 -92 40 -104 39 -5 0 -12 3 -15 8 -3 5 -33 20 -66 33 -33 13 -106 47 -162 75
l-102 50 44 47 c25 26 45 45 45 43 0 -2 15 10 33 28 17 17 31 35 29 40 -1 5 1
6 6 3 5 -3 20 6 32 19 28 29 48 29 73 -3z m3667 -223 c0 -6 -160 -83 -170 -82
-3 1 -21 -7 -41 -18 -104 -52 -376 -144 -519 -174 -119 -25 -140 -27 -235 -27
-102 1 -121 4 -136 19 -8 8 12 18 70 38 45 15 81 31 81 36 0 4 6 6 14 3 7 -3
20 2 29 10 8 8 17 13 20 10 10 -10 367 178 432 229 6 4 48 35 95 68 47 34 84
66 82 72 -2 7 0 9 4 5 3 -4 18 2 32 13 l26 20 108 -108 c59 -59 108 -110 108
-114z m-3790 -601 c0 4 4 3 8 -3 5 -7 186 -73 222 -81 3 0 18 -6 34 -13 16 -6
36 -13 45 -14 9 -1 21 -5 26 -8 8 -5 135 -49 155 -54 3 -1 12 -5 20 -8 45 -19
105 -35 112 -31 4 3 8 0 8 -6 0 -7 7 -10 15 -6 8 3 15 1 15 -5 0 -6 6 -9 14
-6 8 3 16 2 18 -3 2 -6 242 -92 293 -105 6 -1 17 -5 25 -8 27 -12 556 -194
585 -201 6 -2 17 -6 25 -9 8 -4 47 -17 85 -30 70 -24 70 -24 125 -5 30 10 62
21 70 25 8 3 18 6 21 5 7 -1 222 63 249 75 8 3 22 7 30 8 40 6 335 99 338 107
2 4 7 6 11 3 7 -4 113 25 150 41 9 4 23 8 31 10 48 8 75 16 94 26 11 6 27 12
36 13 21 2 103 26 115 33 6 4 15 7 20 7 15 1 99 26 110 33 5 3 16 7 25 7 8 1
62 16 120 34 58 18 110 34 115 35 38 10 132 39 140 44 5 3 16 7 25 8 8 1 69
18 135 38 159 49 185 55 185 46 0 -5 -13 -14 -30 -22 -16 -7 -30 -16 -30 -20
0 -5 -6 -8 -14 -8 -7 0 -26 -10 -42 -22 -16 -13 -30 -22 -31 -21 -6 5 -63 -24
-58 -30 3 -4 2 -5 -1 -3 -3 3 -67 -25 -142 -62 -76 -37 -150 -72 -167 -79 -16
-6 -61 -25 -98 -42 -37 -16 -70 -30 -72 -30 -9 -3 -35 -11 -52 -18 -10 -3 -20
-7 -23 -7 -3 -1 -18 -6 -35 -13 -16 -6 -61 -24 -100 -38 -38 -15 -74 -30 -80
-33 -5 -4 -12 -7 -15 -7 -17 -1 -268 -101 -281 -112 -9 -7 -18 -11 -21 -8 -7
7 -75 -22 -83 -35 -4 -6 -10 -8 -15 -5 -4 3 -41 -9 -81 -26 -41 -17 -81 -32
-89 -34 -8 -2 -33 -11 -55 -20 -22 -10 -40 -16 -40 -15 0 2 -19 -7 -41 -18
-23 -12 -44 -18 -48 -15 -3 4 -6 1 -6 -5 0 -7 -3 -11 -7 -10 -5 1 -46 -11 -93
-26 -98 -32 -189 -39 -269 -20 -31 7 -59 10 -63 8 -5 -3 -8 0 -8 7 0 7 -3 10
-6 7 -3 -3 -46 11 -95 32 -49 21 -93 40 -97 41 -13 3 -37 13 -141 55 -57 24
-108 41 -113 38 -4 -3 -8 -1 -8 4 0 8 -16 16 -55 27 -5 1 -30 12 -55 23 -43
19 -79 34 -90 37 -3 0 -27 11 -55 24 -27 12 -58 23 -67 24 -10 1 -18 5 -18 9
0 4 -8 8 -18 8 -10 0 -22 4 -27 9 -6 5 -48 23 -94 40 -46 18 -150 64 -230 103
-80 39 -149 72 -153 73 -5 2 -11 4 -15 5 -5 1 -12 2 -16 1 -5 -1 -6 2 -4 6 3
5 -38 31 -91 58 -54 28 -100 55 -104 60 -5 7 -8 7 -8 0 0 -6 -3 -6 -8 1 -4 6
-34 25 -67 44 -33 18 -68 40 -77 48 -9 7 -22 11 -29 6 -8 -4 -10 -3 -5 4 4 7
2 12 -3 12 -6 0 -11 4 -11 10 0 5 23 1 50 -9 28 -11 50 -16 50 -13z"/>
<path d="M3838 6155 c-3 -3 -64 -11 -143 -20 -22 -3 -51 -7 -65 -11 -44 -9
-64 -13 -98 -19 -19 -2 -38 -8 -44 -11 -6 -4 -21 -8 -33 -10 -29 -3 -268 -84
-275 -93 -3 -3 -12 -7 -20 -9 -24 -4 -154 -66 -162 -77 -4 -5 -8 -7 -8 -3 0 9
-122 -61 -132 -76 -4 -6 -8 -7 -8 -3 0 9 -60 -30 -71 -46 -3 -5 -8 -7 -11 -5
-3 1 -17 -6 -33 -17 -108 -79 -163 -122 -182 -142 -13 -13 -23 -22 -23 -19 0
4 -10 -4 -22 -16 -13 -13 -22 -26 -21 -30 2 -5 -3 -8 -10 -8 -19 0 -129 -115
-120 -125 5 -4 3 -5 -3 -2 -7 4 -28 -14 -50 -41 -21 -26 -41 -49 -44 -52 -31
-29 -167 -220 -172 -240 -2 -8 -8 -19 -15 -25 -30 -25 -177 -320 -167 -336 3
-5 1 -9 -4 -9 -11 0 -64 -139 -57 -150 3 -5 1 -10 -4 -12 -7 -2 -52 -160 -67
-232 -32 -161 -48 -312 -48 -476 0 -136 10 -257 30 -370 2 -14 8 -52 14 -85 9
-57 45 -192 75 -280 48 -144 151 -375 167 -375 5 0 6 -4 3 -10 -3 -5 -2 -10 2
-10 5 0 15 -16 22 -35 7 -19 17 -35 22 -35 5 0 9 -6 9 -13 0 -7 9 -23 20 -35
12 -12 18 -22 15 -22 -5 0 101 -149 114 -160 3 -3 19 -23 35 -45 46 -62 305
-317 316 -310 6 4 9 2 8 -4 -6 -20 353 -265 370 -253 3 2 8 0 11 -5 8 -12 131
-75 131 -67 0 4 6 1 13 -5 8 -6 17 -8 20 -4 4 3 7 1 7 -5 0 -8 48 -30 80 -37
3 -1 22 -9 44 -18 21 -9 42 -15 46 -12 5 3 10 1 12 -3 3 -8 125 -47 177 -57
12 -2 32 -7 44 -11 12 -4 36 -8 52 -10 17 -1 30 -3 30 -4 0 -4 84 -19 145 -25
25 -2 68 -7 96 -10 115 -13 400 -7 484 10 14 3 41 7 60 10 79 9 250 49 250 57
0 5 4 7 9 3 11 -6 168 42 176 55 3 5 12 7 19 4 8 -3 17 0 21 5 3 6 11 9 16 6
5 -4 9 -1 9 5 0 6 4 9 8 6 8 -5 271 123 345 168 20 12 34 26 30 31 -5 4 -3 5
3 2 16 -9 187 113 293 208 89 80 116 108 113 117 -1 5 1 7 6 4 5 -3 18 5 28
17 134 154 174 204 231 291 38 55 71 103 76 104 4 2 7 8 7 13 0 5 11 27 25 49
14 22 22 40 18 40 -5 0 -3 4 3 8 15 10 47 72 37 72 -5 0 -3 4 4 8 26 16 159
364 147 383 -3 5 -1 9 4 9 5 0 12 12 15 28 6 30 14 65 21 90 3 9 8 35 11 57 4
22 9 50 11 63 22 122 28 212 28 392 0 158 -6 273 -19 340 -3 13 -7 42 -11 64
-3 22 -8 44 -11 49 -3 4 -7 27 -10 49 -2 23 -8 49 -13 59 -5 9 -6 19 -3 23 3
3 1 6 -6 6 -7 0 -9 5 -6 10 15 24 -147 441 -180 466 -8 6 -12 13 -9 16 6 6
-54 109 -70 120 -6 4 -8 8 -3 8 10 0 -64 110 -75 110 -5 0 -7 4 -4 8 6 10
-143 198 -155 194 -5 -1 -8 2 -7 6 4 13 -84 107 -96 104 -6 -2 -8 0 -4 4 9 8
-101 110 -114 106 -5 -1 -7 1 -5 5 3 5 -1 14 -9 21 -8 7 -14 11 -14 8 0 -3
-10 5 -23 17 -30 29 -93 78 -129 100 -16 10 -39 26 -51 37 -20 19 -32 24 -49
21 -5 0 -8 3 -8 8 0 11 -89 64 -107 64 -7 0 -10 3 -8 7 2 3 -35 25 -83 47
-133 64 -202 93 -202 87 0 -4 -6 -1 -13 5 -12 9 -182 66 -227 75 -8 2 -23 6
-33 11 -10 4 -21 5 -24 1 -3 -3 -11 -2 -17 3 -6 5 -29 12 -51 15 -23 4 -52 9
-65 12 -26 6 -51 9 -135 20 -48 6 -471 14 -477 9z m172 -156 c22 -19 40 -40
40 -46 0 -7 5 -13 12 -13 6 0 8 -3 5 -6 -3 -4 -1 -16 4 -27 6 -11 12 -39 14
-62 1 -23 5 -47 9 -54 13 -20 14 -48 3 -48 -30 -1 -175 -15 -202 -19 -16 -3
-39 -7 -50 -9 -11 -1 -42 -6 -70 -11 -103 -17 -200 5 -247 56 -15 17 -24 30
-21 30 8 0 -33 66 -63 99 -15 17 -30 28 -34 26 -5 -3 -10 1 -13 9 -4 10 15 20
71 36 42 11 88 23 102 25 14 2 36 7 50 10 14 3 43 8 65 11 22 3 46 7 53 9 7 3
54 7 105 11 50 4 93 8 95 9 10 8 36 -5 72 -36z m240 27 c41 -4 86 -8 100 -11
14 -2 42 -6 64 -9 21 -3 46 -8 55 -10 9 -3 30 -8 46 -11 17 -3 62 -14 102 -24
40 -10 74 -16 77 -13 4 3 6 0 6 -6 0 -7 6 -12 13 -12 8 0 24 -21 37 -47 25
-51 29 -97 15 -206 -7 -59 -10 -67 -26 -62 -11 4 -31 8 -46 11 -15 3 -30 7
-34 10 -4 2 -29 9 -56 14 -56 11 -234 49 -248 53 -45 13 -119 73 -130 106 -3
11 -10 21 -14 21 -4 0 -6 14 -5 30 2 36 -13 92 -37 137 -16 28 -16 48 0 39 3
-2 40 -7 81 -10z m-970 -168 c0 -4 5 -8 11 -8 13 0 99 -80 96 -90 -3 -11 46
-90 55 -90 5 0 8 -4 8 -10 0 -5 -42 -30 -92 -54 -51 -25 -135 -68 -187 -97
-52 -29 -106 -54 -120 -55 -77 -8 -124 -4 -149 13 -15 9 -31 16 -37 14 -5 -1
-7 1 -3 5 9 8 -53 64 -64 58 -4 -3 -8 -1 -8 5 0 5 -17 15 -37 22 l-37 12 22
17 c11 10 18 21 14 25 -4 3 -2 5 3 3 13 -4 85 41 85 53 0 6 4 8 10 4 5 -3 18
3 30 15 11 11 20 17 20 14 0 -3 12 3 28 14 15 11 47 30 72 42 25 12 48 28 52
34 4 6 8 8 8 3 0 -4 19 3 43 15 23 12 46 21 50 20 4 -1 10 4 13 11 5 15 114
19 114 5z m1759 -60 c132 -67 335 -199 356 -231 10 -15 13 -43 11 -89 -2 -54
-8 -75 -34 -114 -17 -27 -35 -61 -41 -77 -10 -25 -13 -26 -33 -15 -13 7 -26
18 -30 25 -10 14 -95 65 -104 61 -3 -2 -10 5 -15 15 -6 9 -17 17 -24 17 -8 0
-15 5 -15 12 0 6 -3 9 -6 5 -3 -3 -11 -1 -18 4 -24 21 -111 73 -118 71 -5 -1
-7 4 -5 11 1 6 -4 11 -10 10 -7 -2 -12 0 -11 5 5 12 -28 52 -36 44 -4 -4 -6
-2 -5 3 1 6 -2 27 -8 47 -11 37 -9 80 6 122 8 22 7 72 -2 118 -7 33 -11 34
142 -44z m-740 -203 c19 -10 44 -20 55 -21 12 -2 53 -10 91 -18 39 -8 73 -12
78 -9 4 2 7 0 7 -4 0 -5 28 -15 63 -23 75 -16 60 -12 132 -34 78 -23 108 -40
159 -85 50 -46 131 -93 141 -83 5 4 5 1 1 -5 -4 -7 -2 -13 3 -13 6 0 30 -13
52 -30 23 -16 47 -27 53 -23 6 3 8 3 4 -2 -4 -4 14 -22 40 -39 26 -17 56 -39
67 -48 11 -9 31 -26 44 -37 13 -12 28 -21 33 -21 5 0 6 -4 3 -10 -3 -5 -2 -10
3 -10 6 0 19 -19 30 -42 20 -43 146 -210 163 -216 5 -2 9 -8 9 -14 0 -11 35
-59 41 -55 2 1 3 0 2 -1 -1 -2 18 -34 42 -70 52 -81 75 -135 75 -174 0 -24 44
-174 67 -228 4 -8 8 -19 9 -25 1 -5 3 -13 4 -17 1 -5 3 -11 4 -15 2 -5 8 -28
15 -53 14 -47 15 -52 30 -135 12 -69 12 -95 -1 -135 -6 -19 -12 -95 -14 -170
-4 -253 -24 -376 -70 -436 -19 -26 -68 -138 -78 -179 -2 -5 -15 -37 -30 -70
-15 -33 -28 -68 -29 -77 -1 -9 -4 -16 -8 -15 -3 1 -22 -18 -43 -41 -20 -24
-36 -41 -36 -38 0 4 -6 1 -14 -6 -8 -7 -12 -16 -9 -21 2 -4 1 -6 -4 -5 -13 4
-103 -53 -103 -65 0 -6 -3 -8 -6 -4 -3 3 -28 -8 -55 -24 -28 -16 -52 -29 -54
-29 -2 0 -36 -15 -77 -33 -40 -19 -86 -39 -102 -46 l-29 -12 36 44 c20 25 33
48 29 52 -4 3 -2 5 5 3 7 -1 30 21 53 51 32 42 39 60 37 86 -4 29 -37 93 -37
70 0 -5 -6 0 -14 11 -8 11 -46 42 -85 68 -68 45 -106 86 -81 86 6 0 8 5 5 10
-3 6 -2 10 3 10 6 0 17 17 25 38 8 20 37 82 63 137 26 55 48 102 49 105 1 3
13 29 28 58 15 29 25 57 22 62 -4 6 -2 10 3 10 9 0 92 169 92 188 0 6 4 12 8
14 4 2 20 32 36 68 16 36 48 103 71 150 44 90 44 88 52 120 3 11 10 20 15 20
6 0 8 7 4 15 -3 8 -1 15 4 15 27 0 0 24 -97 84 -59 37 -104 64 -100 60 4 -4 0
-12 -7 -18 -8 -6 -26 -33 -41 -61 -15 -27 -44 -79 -65 -115 -21 -35 -36 -68
-33 -74 3 -5 2 -6 -3 -3 -6 3 -21 -15 -34 -41 -13 -26 -35 -62 -48 -79 -14
-18 -21 -33 -18 -33 4 0 -4 -17 -18 -37 -14 -20 -22 -41 -19 -47 3 -6 3 -8 -2
-4 -8 8 -108 -158 -108 -179 0 -7 -4 -10 -8 -7 -8 4 -25 -35 -21 -49 1 -5 -2
-6 -8 -2 -5 3 -10 1 -10 -5 0 -6 -11 -27 -25 -47 -13 -20 -21 -41 -18 -46 3
-6 1 -7 -4 -4 -10 6 -27 -27 -24 -45 1 -5 -3 -8 -7 -8 -8 0 -36 -50 -33 -58 1
-1 -8 -12 -19 -24 -12 -13 -23 -33 -26 -45 -6 -22 -62 -55 -116 -68 -16 -4
-28 -11 -28 -17 0 -5 -4 -7 -8 -4 -5 3 -43 -8 -85 -23 -43 -16 -77 -27 -77
-24 0 3 -6 1 -12 -5 -7 -5 -28 -13 -45 -17 -18 -3 -33 -11 -33 -16 0 -6 -4 -8
-8 -5 -5 3 -40 -5 -78 -18 -38 -13 -90 -29 -116 -37 -27 -7 -48 -17 -48 -21 0
-4 -6 -5 -14 -2 -8 3 -25 0 -38 -7 -13 -7 -32 -14 -43 -15 -11 0 -41 -8 -67
-17 -26 -9 -57 -18 -70 -21 -13 -2 -70 -16 -128 -30 -142 -34 -247 -51 -310
-49 -56 2 -68 -5 -76 -49 -9 -49 -11 -59 -13 -73 -1 -6 -51 -9 -133 -8 -176 2
-273 -22 -340 -85 -26 -24 -29 -24 -46 -9 -10 10 -19 23 -19 30 0 17 -61 107
-72 107 -5 0 -11 9 -14 21 -3 12 -10 18 -17 14 -6 -3 -9 -3 -8 2 5 13 -28 53
-37 45 -5 -4 -6 -2 -3 3 8 13 -67 117 -76 107 -4 -4 -7 -2 -6 3 5 21 0 36 -10
30 -6 -4 -10 -3 -8 2 3 12 -34 83 -44 83 -4 0 -8 4 -8 9 0 5 -5 22 -11 38 -6
15 -13 44 -14 63 -5 45 -10 66 -28 115 -16 43 -24 67 -25 75 0 3 -6 19 -12 35
-7 17 -13 37 -16 45 -2 8 -12 49 -23 90 -11 41 -23 93 -27 115 -3 22 -7 47 -8
55 -2 8 1 30 6 50 5 19 10 78 13 130 12 249 19 343 32 395 3 16 8 36 9 44 1 7
15 34 31 60 16 25 43 82 60 126 18 44 37 94 44 110 7 17 13 32 14 35 0 3 14
32 29 65 50 106 100 182 135 206 41 28 39 27 116 114 33 38 59 72 58 77 -2 4
3 7 10 5 6 -1 11 4 10 11 -2 6 1 12 6 12 4 0 46 36 92 80 45 44 91 82 101 86
10 3 15 11 12 17 -4 7 -4 9 0 5 10 -9 134 37 168 62 15 11 32 20 38 20 5 0 10
4 10 8 0 5 6 9 13 9 21 1 86 40 79 48 -4 4 0 6 8 4 8 -1 38 8 65 20 51 23 96
43 105 46 3 1 13 5 22 9 9 4 25 9 35 11 10 2 18 4 18 5 0 1 43 3 95 4 52 1
104 5 115 9 25 7 79 16 154 23 30 3 57 7 59 9 2 1 56 2 120 0 90 -1 125 -6
151 -20z m-1598 -141 c25 -8 59 -28 75 -45 16 -17 44 -39 61 -50 l33 -20 -68
-68 c-94 -96 -177 -192 -174 -202 1 -5 -4 -8 -10 -7 -7 2 -12 -3 -10 -9 1 -7
-2 -13 -8 -13 -5 0 -33 -14 -62 -32 -62 -37 -117 -42 -168 -16 -40 19 -90 31
-137 31 -30 -1 -32 1 -21 21 14 26 48 76 66 94 7 8 10 18 6 23 -3 5 -1 8 3 7
5 -2 31 24 58 57 101 124 215 237 248 246 25 6 42 3 108 -17z m2875 -39 c19
-19 40 -35 45 -35 5 0 8 -3 7 -7 -2 -5 21 -34 51 -65 29 -32 64 -71 76 -88 12
-16 25 -28 28 -25 4 3 5 2 2 -1 -2 -4 8 -23 24 -43 74 -95 100 -145 95 -181
-9 -58 -51 -123 -110 -168 -30 -23 -52 -47 -49 -53 4 -5 1 -8 -6 -7 -7 2 -44
46 -82 98 -38 52 -89 118 -113 146 -93 110 -124 222 -80 287 25 37 67 123 65
134 -3 16 1 43 6 43 2 0 21 -16 41 -35z m-3241 -542 c43 -22 45 -23 75 -23 18
0 19 -3 10 -20 -6 -11 -8 -20 -5 -20 4 0 -1 -7 -9 -16 -9 -8 -14 -19 -11 -24
3 -5 2 -10 -3 -12 -12 -5 -72 -149 -66 -159 3 -5 1 -9 -4 -9 -6 0 -13 -12 -16
-26 -20 -77 -114 -204 -152 -204 -8 0 -14 -4 -14 -8 0 -4 -31 -6 -70 -4 -46 3
-85 -1 -116 -12 l-47 -16 6 33 c11 62 17 81 49 176 18 53 33 101 33 107 0 6 5
18 11 25 5 8 27 53 48 101 21 48 45 93 55 101 45 40 159 44 226 10z m3675 -49
c0 -8 4 -13 8 -10 4 2 9 -5 9 -16 1 -12 6 -24 10 -27 4 -3 9 -10 10 -16 1 -5
22 -59 47 -120 24 -60 58 -160 74 -222 27 -100 29 -114 16 -138 -14 -27 -74
-100 -74 -90 0 2 -15 -4 -32 -15 -18 -11 -40 -20 -48 -20 -9 0 -33 -9 -55 -20
-21 -11 -39 -19 -40 -17 -1 2 -62 210 -69 237 -2 8 -14 40 -26 70 -26 64 -32
189 -11 230 13 25 89 100 101 100 3 0 19 20 34 45 30 46 46 57 46 29z m-3835
-651 c-4 -38 -8 -131 -10 -209 -2 -77 -9 -153 -15 -168 -5 -15 -8 -32 -4 -37
3 -5 1 -9 -4 -9 -5 0 -15 -13 -22 -30 -15 -35 -48 -58 -120 -83 -30 -10 -71
-32 -92 -48 l-37 -30 -8 38 c-10 49 -10 409 0 488 4 33 12 62 17 63 6 2 7 9 4
14 -4 6 -2 8 4 4 6 -3 13 -2 17 4 3 6 25 20 48 32 32 16 61 22 124 22 45 1 85
5 89 9 14 14 15 7 9 -60z m4055 -70 c1 -5 3 -35 6 -68 7 -70 7 -344 0 -395 -2
-19 -5 -48 -5 -63 -1 -17 -12 -40 -30 -57 -16 -16 -26 -32 -22 -36 3 -4 0 -4
-7 0 -8 5 -21 1 -31 -9 -14 -12 -45 -17 -125 -20 l-106 -5 5 28 c3 15 8 88 10
162 3 74 7 158 10 185 10 101 50 172 112 197 21 9 56 23 78 32 22 9 51 26 65
36 27 21 40 25 40 13z m-945 -112 c-8 -17 -12 -31 -8 -31 5 0 3 -4 -3 -8 -13
-9 -115 -221 -117 -244 -1 -9 -5 -14 -9 -12 -4 3 -8 0 -8 -5 0 -6 -13 -38 -30
-72 -16 -34 -28 -65 -25 -69 2 -4 -4 -15 -14 -24 -16 -15 -36 -63 -31 -75 1
-2 -3 -7 -8 -10 -8 -5 -40 -68 -47 -91 0 -3 -22 -49 -48 -103 -26 -55 -49
-104 -50 -110 -1 -7 -5 -15 -10 -18 -13 -10 -16 -73 -4 -96 12 -22 63 -62 154
-123 29 -19 53 -38 53 -42 0 -5 -31 -43 -70 -87 -38 -43 -66 -83 -62 -87 4 -5
3 -6 -2 -2 -4 4 -26 -14 -48 -40 -22 -26 -56 -57 -75 -68 -40 -25 -126 -54
-175 -59 -18 -2 -33 -4 -33 -5 0 -4 -113 -9 -200 -9 -111 0 -219 10 -232 22
-3 4 -17 7 -29 7 -13 0 -61 9 -106 19 -46 11 -96 22 -113 24 -16 3 -77 15
-135 27 -58 13 -116 24 -130 26 -14 2 -65 13 -114 24 -49 11 -92 17 -97 14 -5
-3 -9 0 -9 6 0 6 -3 9 -7 7 -5 -3 -19 -1 -32 4 -19 7 -21 12 -11 23 6 8 19 14
28 14 9 -1 40 2 67 6 48 6 72 10 125 22 14 3 36 7 50 10 120 25 494 134 498
146 2 4 7 6 12 3 4 -2 86 23 181 56 96 33 179 62 184 63 6 2 19 6 30 10 11 5
45 17 75 28 30 10 66 25 79 31 24 12 194 291 183 301 -3 3 -1 6 5 6 8 0 22 22
34 55 2 6 9 17 16 25 7 8 13 19 12 24 0 5 3 12 8 15 9 6 51 74 110 180 14 24
60 104 103 177 43 74 77 134 74 134 -3 0 1 6 8 14 19 21 21 1 3 -33z m-3105
-496 c7 -27 32 -109 55 -181 74 -224 65 -281 -55 -374 -17 -14 -43 -45 -58
-69 l-26 -45 -27 58 c-37 79 -72 159 -75 171 -1 6 -11 33 -22 60 -11 28 -20
52 -20 55 0 3 -9 37 -20 75 -36 121 -36 136 -9 177 14 20 22 39 19 43 -4 4 0
5 8 3 8 -1 14 3 13 10 -2 6 0 11 5 10 4 0 27 8 52 20 25 12 52 22 60 22 8 0
28 9 45 20 34 22 35 21 55 -55z m4006 -162 c-3 -10 -10 -38 -16 -63 -6 -25
-18 -65 -27 -90 -8 -25 -16 -52 -18 -60 -2 -8 -23 -63 -48 -122 -25 -58 -43
-109 -39 -112 3 -3 0 -6 -6 -6 -7 0 -18 -16 -26 -35 -16 -38 -43 -52 -111 -62
-22 -3 -42 -6 -45 -6 -8 -1 -52 13 -85 28 -17 8 -43 16 -59 19 -16 3 -30 7
-33 9 -2 3 10 33 26 67 17 35 28 67 25 71 -3 5 -1 9 5 9 8 0 18 19 26 50 21
77 94 217 129 248 19 17 34 32 33 34 -1 1 0 2 2 1 2 -1 11 2 21 7 16 9 36 10
126 10 23 0 52 4 65 9 39 16 61 13 55 -6z m-3797 -426 c11 -18 29 -44 40 -57
12 -14 24 -29 29 -35 4 -5 11 -18 15 -28 4 -11 12 -15 18 -11 7 4 9 3 6 -2 -7
-12 61 -100 75 -96 5 1 7 -2 4 -7 -4 -5 -2 -12 4 -16 11 -7 51 -79 58 -105 2
-8 6 -37 9 -63 4 -41 0 -55 -31 -107 -33 -57 -59 -124 -50 -133 3 -2 -4 -10
-13 -18 -10 -7 -15 -10 -11 -5 8 10 -23 47 -34 40 -5 -3 -7 0 -6 8 2 7 -3 12
-10 10 -6 -1 -11 4 -10 10 2 7 -3 12 -10 10 -6 -1 -11 4 -10 10 2 7 -3 12 -10
10 -6 -1 -11 2 -10 7 2 5 -13 26 -32 47 -19 22 -55 64 -79 94 -25 30 -50 60
-56 65 -7 6 -12 12 -12 15 0 3 -18 33 -41 68 -43 67 -44 72 -10 157 12 31 82
105 99 105 6 0 7 5 4 10 -3 6 0 10 7 10 7 0 19 9 26 20 16 26 17 26 41 -13z
m3323 -210 c9 -1 14 -6 11 -11 -4 -5 1 -7 11 -3 9 4 15 3 11 -2 -6 -10 61 -25
112 -25 37 0 40 -17 11 -50 -10 -11 -30 -38 -45 -60 -15 -23 -30 -43 -33 -46
-3 -3 -21 -25 -40 -50 -19 -25 -40 -49 -47 -53 -8 -5 -11 -13 -7 -18 3 -5 2
-9 -3 -7 -4 1 -45 -36 -90 -82 -81 -82 -83 -83 -130 -82 -60 1 -114 23 -156
63 -17 17 -44 38 -59 47 -16 9 -27 19 -26 23 2 4 48 54 103 113 55 58 105 111
110 118 39 50 65 78 65 72 0 -4 9 1 20 11 26 24 118 54 144 48 12 -3 29 -6 38
-6z m-2457 -121 c40 -4 152 -22 190 -30 55 -12 173 -36 195 -40 14 -2 59 -12
100 -21 41 -8 86 -17 100 -19 14 -2 44 -8 68 -15 23 -7 47 -9 52 -6 6 3 10 1
10 -5 0 -6 6 -10 13 -8 6 1 35 -4 64 -11 29 -7 56 -10 62 -7 5 4 12 2 15 -3
17 -27 320 -45 476 -27 81 9 107 14 185 38 39 12 74 21 79 20 4 -2 22 2 40 8
17 5 33 10 36 9 4 -1 33 9 105 37 11 4 22 8 25 9 38 9 80 29 80 36 0 6 4 8 9
5 5 -3 34 5 65 19 63 28 70 22 26 -20 -16 -15 -27 -32 -24 -37 3 -5 0 -7 -8
-6 -7 2 -12 -3 -10 -10 1 -6 -4 -11 -10 -10 -7 2 -12 -3 -10 -10 1 -6 -4 -11
-10 -10 -7 2 -12 -3 -10 -10 1 -8 -1 -11 -5 -9 -5 3 -30 -15 -57 -39 -28 -24
-56 -44 -63 -44 -7 0 -13 -4 -13 -9 0 -5 -16 -12 -35 -15 -19 -4 -65 -23 -103
-43 -98 -52 -281 -144 -287 -144 -2 0 -26 -9 -52 -20 -35 -15 -75 -21 -149
-24 -56 -1 -106 -5 -111 -8 -4 -2 -30 -7 -58 -11 -27 -3 -60 -8 -72 -10 -38
-8 -176 -18 -234 -18 -31 1 -83 10 -115 22 -63 22 -129 39 -180 45 -17 3 -43
9 -58 15 -14 5 -26 8 -26 5 0 -2 -30 5 -66 15 -37 11 -69 19 -73 18 -3 -1 -13
2 -21 5 -8 4 -40 15 -70 27 -31 11 -76 38 -100 60 -50 44 -138 97 -154 92 -6
-2 -8 0 -4 3 8 8 -162 122 -175 117 -5 -1 -6 2 -2 8 3 5 1 10 -4 10 -28 0 -6
33 33 50 72 32 202 42 341 26z m-425 -196 c51 -38 230 -151 230 -145 0 11 93
-76 120 -112 22 -29 25 -42 22 -108 -2 -33 -4 -92 -4 -132 -1 -40 -4 -71 -7
-69 -3 2 -54 26 -113 55 -59 28 -110 56 -113 61 -4 6 -11 8 -16 5 -5 -4 -9 -2
-9 4 0 11 -39 27 -55 22 -5 -1 -7 0 -3 4 8 8 -90 78 -109 78 -7 0 -10 4 -7 9
3 4 1 8 -5 8 -17 0 -71 58 -72 77 -4 53 1 111 11 138 6 17 11 31 11 33 -1 1 8
11 18 21 10 10 25 35 32 54 13 38 15 38 69 -3z m2336 -159 c17 -5 48 -25 68
-45 21 -19 60 -46 87 -58 27 -13 49 -26 49 -30 0 -3 -16 -16 -35 -28 -19 -12
-35 -26 -35 -31 0 -6 -4 -8 -8 -5 -5 3 -21 -6 -37 -20 -15 -13 -33 -24 -38
-24 -6 0 -18 -6 -26 -14 -26 -23 -257 -145 -291 -154 -55 -14 -137 28 -181 93
-15 22 -27 42 -27 45 3 15 -16 39 -26 33 -6 -3 -8 -2 -3 2 4 5 0 16 -8 25 -17
19 -28 11 110 76 44 21 82 40 85 43 11 13 137 75 175 87 48 15 99 17 141 5z
m-1718 -182 c90 -22 267 -59 290 -61 6 -1 12 -6 12 -11 0 -6 3 -7 7 -4 3 4 21
-4 38 -18 18 -13 35 -22 39 -20 3 3 4 2 1 -2 -2 -3 5 -16 18 -28 25 -24 27
-31 34 -95 2 -25 17 -70 32 -101 l28 -57 -46 4 c-145 12 -235 25 -341 50 -14
3 -34 7 -45 7 -11 1 -22 5 -25 8 -5 6 -86 30 -107 31 -7 1 -18 14 -25 29 -7
15 -16 25 -22 22 -5 -3 -6 -2 -3 4 3 5 0 26 -7 47 -14 40 -14 55 1 121 5 22 8
55 7 73 -1 25 2 32 13 28 7 -3 53 -15 101 -27z m1068 -83 c39 -20 54 -37 92
-106 17 -30 36 -54 42 -52 6 1 9 -2 6 -7 -3 -5 6 -17 21 -26 20 -14 23 -19 12
-25 -23 -13 -187 -54 -259 -65 -20 -3 -45 -7 -55 -9 -21 -4 -130 -15 -202 -21
-42 -3 -85 18 -106 52 -4 6 -14 18 -21 26 -15 15 -36 81 -42 132 -2 17 -6 42
-9 56 -6 23 -4 25 22 26 27 0 102 7 188 18 22 3 60 9 85 15 62 13 189 5 226
-14z"/>
<path d="M3480 5292 c0 -1 7 -14 16 -27 9 -14 13 -25 10 -25 -4 0 0 -10 8 -22
19 -30 67 -146 73 -178 15 -73 7 -132 -24 -179 -10 -14 -18 -30 -18 -36 0 -5
-7 -10 -15 -10 -8 -1 -13 -7 -12 -15 2 -8 1 -12 -3 -8 -6 5 -165 -107 -165
-116 0 -1 304 -2 675 -2 l676 0 16 55 c26 86 23 240 -6 316 -32 87 -85 157
-172 229 -23 19 -44 20 -541 21 -285 0 -518 -1 -518 -3z m1042 -173 c26 -28
48 -58 48 -66 0 -8 5 -11 12 -7 6 4 8 3 5 -3 -4 -6 0 -27 8 -47 19 -45 25
-162 10 -183 -10 -13 -74 -15 -463 -16 -249 0 -454 2 -457 5 -2 2 4 26 14 54
22 59 26 133 11 194 -6 25 -12 53 -15 63 -2 10 -7 27 -10 38 -6 19 4 19 391
19 l398 0 48 -51z"/>
<path d="M3361 4614 c5 -6 7 -13 4 -16 -3 -2 2 -29 11 -59 24 -80 21 -211 -6
-296 -12 -37 -26 -73 -32 -80 -5 -7 -6 -18 -2 -24 4 -8 3 -9 -4 -5 -7 4 -12 2
-12 -4 0 -6 -7 -18 -15 -27 -8 -8 -12 -20 -8 -26 3 -7 3 -10 0 -6 -4 3 -34
-21 -67 -52 -33 -32 -80 -68 -105 -80 -25 -13 -42 -27 -38 -33 3 -6 3 -8 -2
-4 -9 9 -85 -31 -85 -44 0 -5 -4 -7 -8 -4 -4 2 -14 1 -22 -5 -9 -5 370 -8 979
-6 l995 2 8 30 c17 66 21 95 23 218 2 78 0 127 -6 127 -6 0 -7 5 -4 10 8 12
-55 180 -67 180 -4 0 -8 6 -8 14 0 8 -10 22 -22 30 -12 9 -18 16 -13 16 5 0
-9 18 -30 41 -50 51 -142 129 -130 110 6 -11 5 -12 -6 -5 -22 13 -1339 12
-1328 -2z m1310 -130 c6 -7 15 -11 20 -8 5 3 8 0 7 -8 -2 -7 3 -12 9 -11 7 2
12 -3 10 -10 -1 -6 4 -11 11 -9 8 1 11 -2 8 -7 -4 -5 -1 -13 5 -16 14 -9 79
-112 84 -133 2 -9 10 -39 18 -67 11 -41 14 -172 5 -240 -1 -7 -244 -10 -744
-10 -492 0 -740 3 -736 10 3 6 13 22 23 36 10 14 15 30 11 34 -4 5 -2 5 4 2
12 -7 78 119 69 133 -3 4 0 10 5 12 6 2 12 15 14 29 1 13 6 31 11 39 5 8 10
64 11 125 1 60 3 111 3 112 1 1 257 2 570 2 477 -1 572 -3 582 -15z"/>
<path d="M3057 3746 c89 -81 108 -101 122 -131 24 -51 27 -84 15 -155 -3 -19
-6 -43 -7 -52 -1 -10 -4 -18 -7 -18 -3 0 -11 -15 -18 -34 -18 -49 -82 -145
-132 -196 -25 -25 -43 -49 -42 -53 1 -5 -2 -6 -6 -3 -5 3 -22 -5 -37 -18 -15
-13 -55 -38 -89 -55 -33 -18 -79 -47 -100 -65 l-39 -33 289 0 c266 0 298 2
404 24 63 13 120 25 125 27 6 2 29 7 53 11 23 4 42 11 42 16 0 5 3 8 8 8 20
-3 52 2 52 9 0 4 -98 9 -217 11 -230 4 -385 8 -393 10 -3 1 9 13 25 27 17 14
23 22 15 18 -9 -4 -12 -3 -7 2 5 5 12 9 15 9 15 0 32 17 27 26 -4 5 0 9 7 9
12 0 65 66 66 83 1 4 8 15 17 23 8 9 15 22 15 30 0 8 5 14 10 14 6 0 10 9 10
19 0 11 4 22 9 25 8 5 16 34 28 106 11 67 11 110 -3 161 -7 31 -14 59 -14 61
0 2 345 4 766 3 421 0 769 2 774 5 7 5 60 105 60 115 0 3 -426 5 -946 5 l-946
0 49 -44z"/>
</g>
</svg>
